<?xml version="1.0" encoding="utf-8" standalone="no"?>
<!DOCTYPE svg PUBLIC "-//W3C//DTD SVG 1.1//EN"
  "http://www.w3.org/Graphics/SVG/1.1/DTD/svg11.dtd">
<svg xmlns:xlink="http://www.w3.org/1999/xlink" width="549.714938pt" height="389.50675pt" viewBox="0 0 549.714938 389.50675" xmlns="http://www.w3.org/2000/svg" version="1.1">
 <metadata>
  <rdf:RDF xmlns:dc="http://purl.org/dc/elements/1.1/" xmlns:cc="http://creativecommons.org/ns#" xmlns:rdf="http://www.w3.org/1999/02/22-rdf-syntax-ns#">
   <cc:Work>
    <dc:type rdf:resource="http://purl.org/dc/dcmitype/StillImage"/>
    <dc:date>2025-06-05T19:46:16.297218</dc:date>
    <dc:format>image/svg+xml</dc:format>
    <dc:creator>
     <cc:Agent>
      <dc:title>Matplotlib v3.10.3, https://matplotlib.org/</dc:title>
     </cc:Agent>
    </dc:creator>
   </cc:Work>
  </rdf:RDF>
 </metadata>
 <defs>
  <style type="text/css">*{stroke-linejoin: round; stroke-linecap: butt}</style>
 </defs>
 <g id="figure_1">
  <g id="patch_1">
   <path d="M 0 389.50675 
L 549.714938 389.50675 
L 549.714938 0 
L 0 0 
z
" style="fill: #ffffff"/>
  </g>
  <g id="axes_1">
   <g id="patch_2">
    <path d="M 71.910938 351.408 
L 518.310938 351.408 
L 518.310938 18.768 
L 71.910938 18.768 
z
" style="fill: #ffffff"/>
   </g>
   <g id="patch_3">
    <path d="M 340.945523 188.520362 
C 328.157543 187.362439 315.879074 186.328617 306.814308 185.646583 
C 297.749542 184.96455 292.638576 184.68999 292.607041 184.883372 
C 292.575506 185.076754 297.625976 185.722289 306.646145 186.677806 
C 315.666314 187.633323 327.919725 188.820808 340.707705 189.978731 
C 353.495685 191.136654 365.774154 192.170476 374.83892 192.85251 
C 383.903686 193.534544 389.014652 193.809104 389.046187 193.615722 
C 389.077722 193.42234 384.027252 192.776805 375.007083 191.821288 
C 365.986914 190.86577 353.733503 189.678285 340.945523 188.520362 
z
" clip-path="url(#p5f8c958148)" style="fill: #0000ff; fill-opacity: 0.2; stroke: #000000; stroke-linejoin: miter"/>
   </g>
   <g id="patch_4">
    <path d="M 341.064432 187.791178 
C 315.488471 185.475331 290.931535 183.407687 272.802002 182.04362 
C 254.672469 180.679553 244.450537 180.130433 244.387467 180.517197 
C 244.324397 180.90396 254.425339 182.195031 272.465677 184.106065 
C 290.506015 186.017099 315.012835 188.392069 340.588796 190.707916 
C 366.164757 193.023762 390.721694 195.091406 408.851226 196.455473 
C 426.980759 197.819541 437.202691 198.368661 437.265761 197.981897 
C 437.328831 197.595133 427.227889 196.304062 409.187551 194.393028 
C 391.147213 192.481994 366.640393 190.107024 341.064432 187.791178 
z
" clip-path="url(#p5f8c958148)" style="fill: #0000ff; fill-opacity: 0.2; stroke: #000000; stroke-linejoin: miter"/>
   </g>
   <g id="patch_5">
    <path d="M 341.183341 187.061993 
C 302.8194 183.588224 265.983995 180.486758 238.789696 178.440657 
C 211.595397 176.394556 196.262499 175.570875 196.167894 176.151021 
C 196.073289 176.731167 211.224701 178.667773 238.285208 181.534324 
C 265.345715 184.400876 302.105946 187.963331 340.469887 191.4371 
C 378.833828 194.91087 415.669233 198.012336 442.863532 200.058437 
C 470.057831 202.104538 485.390729 202.928218 485.485334 202.348072 
C 485.579939 201.767926 470.428527 199.83132 443.36802 196.964769 
C 416.307513 194.098218 379.547282 190.535763 341.183341 187.061993 
z
" clip-path="url(#p5f8c958148)" style="fill: #0000ff; fill-opacity: 0.2; stroke: #000000; stroke-linejoin: miter"/>
   </g>
   <g id="patch_6">
    <path d="M 336.40595 188.469371 
C 335.114442 188.443236 333.87296 188.492188 332.954925 188.605444 
C 332.03689 188.718701 331.517256 188.887016 331.510467 189.07332 
C 331.503677 189.259624 332.010286 189.448706 332.918719 189.598923 
C 333.827152 189.74914 335.063239 189.848227 336.354747 189.874362 
C 337.646255 189.900497 338.887737 189.851545 339.805772 189.738289 
C 340.723807 189.625032 341.243441 189.456717 341.25023 189.270413 
C 341.25702 189.084109 340.750411 188.895027 339.841978 188.74481 
C 338.933545 188.594593 337.697458 188.495506 336.40595 188.469371 
z
" clip-path="url(#p5f8c958148)" style="fill: #00ff00; fill-opacity: 0.2; stroke: #000000; stroke-linejoin: miter"/>
   </g>
   <g id="patch_7">
    <path d="M 336.431551 187.766876 
C 333.848536 187.714606 331.365571 187.812509 329.529502 188.039022 
C 327.693432 188.265535 326.654164 188.602165 326.640585 188.974773 
C 326.627006 189.347381 327.640224 189.725545 329.457089 190.025979 
C 331.273955 190.326413 333.74613 190.524587 336.329145 190.576857 
C 338.912161 190.629127 341.395126 190.531224 343.231195 190.304711 
C 345.067265 190.078197 346.106533 189.741567 346.120112 189.36896 
C 346.133691 188.996352 345.120473 188.618188 343.303607 188.317754 
C 341.486742 188.01732 339.014567 187.819146 336.431551 187.766876 
z
" clip-path="url(#p5f8c958148)" style="fill: #00ff00; fill-opacity: 0.2; stroke: #000000; stroke-linejoin: miter"/>
   </g>
   <g id="patch_8">
    <path d="M 336.457153 187.064381 
C 332.58263 186.985976 328.858183 187.13283 326.104078 187.4726 
C 323.349973 187.81237 321.791072 188.317315 321.770703 188.876227 
C 321.750334 189.435138 323.270161 190.002384 325.99546 190.453035 
C 328.720759 190.903686 332.429021 191.200948 336.303544 191.279352 
C 340.178067 191.357757 343.902514 191.210903 346.656619 190.871133 
C 349.410723 190.531363 350.969625 190.026418 350.989994 189.467506 
C 351.010363 188.908595 349.490536 188.341349 346.765237 187.890698 
C 344.039938 187.440047 340.331676 187.142785 336.457153 187.064381 
z
" clip-path="url(#p5f8c958148)" style="fill: #00ff00; fill-opacity: 0.2; stroke: #000000; stroke-linejoin: miter"/>
   </g>
   <g id="PathCollection_1">
    <defs>
     <path id="md45bffe012" d="M 0 -2.738613 
L -0.614857 -0.846278 
L -2.604576 -0.846278 
L -0.994859 0.323249 
L -1.609716 2.215584 
L -0 1.046057 
L 1.609716 2.215584 
L 0.994859 0.323249 
L 2.604576 -0.846278 
L 0.614857 -0.846278 
z
" style="stroke: #000000"/>
    </defs>
    <g clip-path="url(#p5f8c958148)">
     <use xlink:href="#md45bffe012" x="295.110938" y="185.088" style="stroke: #000000"/>
    </g>
   </g>
   <g id="PathCollection_2">
    <defs>
     <path id="m0ee2a1f561" d="M 0 -1.118034 
L -1.118034 1.118034 
L 1.118034 1.118034 
z
" style="stroke: #008000"/>
    </defs>
    <g clip-path="url(#p5f8c958148)">
     <use xlink:href="#m0ee2a1f561" x="329.715001" y="189.004725" style="fill: #008000; stroke: #008000"/>
     <use xlink:href="#m0ee2a1f561" x="338.466939" y="190.963818" style="fill: #008000; stroke: #008000"/>
     <use xlink:href="#m0ee2a1f561" x="344.386205" y="188.939581" style="fill: #008000; stroke: #008000"/>
     <use xlink:href="#m0ee2a1f561" x="337.983669" y="189.524076" style="fill: #008000; stroke: #008000"/>
     <use xlink:href="#m0ee2a1f561" x="331.668895" y="188.703259" style="fill: #008000; stroke: #008000"/>
     <use xlink:href="#m0ee2a1f561" x="334.353152" y="188.604768" style="fill: #008000; stroke: #008000"/>
     <use xlink:href="#m0ee2a1f561" x="332.369504" y="189.530948" style="fill: #008000; stroke: #008000"/>
     <use xlink:href="#m0ee2a1f561" x="342.785763" y="188.784779" style="fill: #008000; stroke: #008000"/>
     <use xlink:href="#m0ee2a1f561" x="333.359168" y="188.658153" style="fill: #008000; stroke: #008000"/>
     <use xlink:href="#m0ee2a1f561" x="338.715188" y="189.004555" style="fill: #008000; stroke: #008000"/>
    </g>
   </g>
   <g id="PathCollection_3">
    <defs>
     <path id="m12510a4d74" d="M -0 1.118034 
L 1.118034 -1.118034 
L -1.118034 -1.118034 
z
" style="stroke: #0000ff"/>
    </defs>
    <g clip-path="url(#p5f8c958148)">
     <use xlink:href="#m12510a4d74" x="295.110938" y="185.088" style="fill: #0000ff; stroke: #0000ff"/>
     <use xlink:href="#m12510a4d74" x="384.336049" y="194.597189" style="fill: #0000ff; stroke: #0000ff"/>
     <use xlink:href="#m12510a4d74" x="389.773951" y="192.507642" style="fill: #0000ff; stroke: #0000ff"/>
     <use xlink:href="#m12510a4d74" x="384.585699" y="193.981132" style="fill: #0000ff; stroke: #0000ff"/>
     <use xlink:href="#m12510a4d74" x="295.110938" y="185.088" style="fill: #0000ff; stroke: #0000ff"/>
     <use xlink:href="#m12510a4d74" x="295.110938" y="185.088" style="fill: #0000ff; stroke: #0000ff"/>
     <use xlink:href="#m12510a4d74" x="295.110938" y="185.088" style="fill: #0000ff; stroke: #0000ff"/>
     <use xlink:href="#m12510a4d74" x="388.940346" y="192.623839" style="fill: #0000ff; stroke: #0000ff"/>
     <use xlink:href="#m12510a4d74" x="295.110938" y="185.088" style="fill: #0000ff; stroke: #0000ff"/>
     <use xlink:href="#m12510a4d74" x="385.075408" y="193.345666" style="fill: #0000ff; stroke: #0000ff"/>
    </g>
   </g>
   <g id="matplotlib.axis_1">
    <g id="xtick_1">
     <g id="line2d_1">
      <defs>
       <path id="m5542c50b1e" d="M 0 0 
L 0 3.5 
" style="stroke: #000000; stroke-width: 0.8"/>
      </defs>
      <g>
       <use xlink:href="#m5542c50b1e" x="116.550938" y="351.408" style="stroke: #000000; stroke-width: 0.8"/>
      </g>
     </g>
     <g id="text_1">
      <!-- −4000 -->
      <g transform="translate(92.870156 369.045812) scale(0.14 -0.14)">
       <defs>
        <path id="DejaVuSans-2212" d="M 678 2272 
L 4684 2272 
L 4684 1741 
L 678 1741 
L 678 2272 
z
" transform="scale(0.015625)"/>
        <path id="DejaVuSans-34" d="M 2419 4116 
L 825 1625 
L 2419 1625 
L 2419 4116 
z
M 2253 4666 
L 3047 4666 
L 3047 1625 
L 3713 1625 
L 3713 1100 
L 3047 1100 
L 3047 0 
L 2419 0 
L 2419 1100 
L 313 1100 
L 313 1709 
L 2253 4666 
z
" transform="scale(0.015625)"/>
        <path id="DejaVuSans-30" d="M 2034 4250 
Q 1547 4250 1301 3770 
Q 1056 3291 1056 2328 
Q 1056 1369 1301 889 
Q 1547 409 2034 409 
Q 2525 409 2770 889 
Q 3016 1369 3016 2328 
Q 3016 3291 2770 3770 
Q 2525 4250 2034 4250 
z
M 2034 4750 
Q 2819 4750 3233 4129 
Q 3647 3509 3647 2328 
Q 3647 1150 3233 529 
Q 2819 -91 2034 -91 
Q 1250 -91 836 529 
Q 422 1150 422 2328 
Q 422 3509 836 4129 
Q 1250 4750 2034 4750 
z
" transform="scale(0.015625)"/>
       </defs>
       <use xlink:href="#DejaVuSans-2212"/>
       <use xlink:href="#DejaVuSans-34" transform="translate(83.789062 0)"/>
       <use xlink:href="#DejaVuSans-30" transform="translate(147.412109 0)"/>
       <use xlink:href="#DejaVuSans-30" transform="translate(211.035156 0)"/>
       <use xlink:href="#DejaVuSans-30" transform="translate(274.658203 0)"/>
      </g>
     </g>
    </g>
    <g id="xtick_2">
     <g id="line2d_2">
      <g>
       <use xlink:href="#m5542c50b1e" x="205.830938" y="351.408" style="stroke: #000000; stroke-width: 0.8"/>
      </g>
     </g>
     <g id="text_2">
      <!-- −2000 -->
      <g transform="translate(182.150156 369.045812) scale(0.14 -0.14)">
       <defs>
        <path id="DejaVuSans-32" d="M 1228 531 
L 3431 531 
L 3431 0 
L 469 0 
L 469 531 
Q 828 903 1448 1529 
Q 2069 2156 2228 2338 
Q 2531 2678 2651 2914 
Q 2772 3150 2772 3378 
Q 2772 3750 2511 3984 
Q 2250 4219 1831 4219 
Q 1534 4219 1204 4116 
Q 875 4013 500 3803 
L 500 4441 
Q 881 4594 1212 4672 
Q 1544 4750 1819 4750 
Q 2544 4750 2975 4387 
Q 3406 4025 3406 3419 
Q 3406 3131 3298 2873 
Q 3191 2616 2906 2266 
Q 2828 2175 2409 1742 
Q 1991 1309 1228 531 
z
" transform="scale(0.015625)"/>
       </defs>
       <use xlink:href="#DejaVuSans-2212"/>
       <use xlink:href="#DejaVuSans-32" transform="translate(83.789062 0)"/>
       <use xlink:href="#DejaVuSans-30" transform="translate(147.412109 0)"/>
       <use xlink:href="#DejaVuSans-30" transform="translate(211.035156 0)"/>
       <use xlink:href="#DejaVuSans-30" transform="translate(274.658203 0)"/>
      </g>
     </g>
    </g>
    <g id="xtick_3">
     <g id="line2d_3">
      <g>
       <use xlink:href="#m5542c50b1e" x="295.110938" y="351.408" style="stroke: #000000; stroke-width: 0.8"/>
      </g>
     </g>
     <g id="text_3">
      <!-- 0 -->
      <g transform="translate(290.657188 369.045812) scale(0.14 -0.14)">
       <use xlink:href="#DejaVuSans-30"/>
      </g>
     </g>
    </g>
    <g id="xtick_4">
     <g id="line2d_4">
      <g>
       <use xlink:href="#m5542c50b1e" x="384.390938" y="351.408" style="stroke: #000000; stroke-width: 0.8"/>
      </g>
     </g>
     <g id="text_4">
      <!-- 2000 -->
      <g transform="translate(366.575938 369.045812) scale(0.14 -0.14)">
       <use xlink:href="#DejaVuSans-32"/>
       <use xlink:href="#DejaVuSans-30" transform="translate(63.623047 0)"/>
       <use xlink:href="#DejaVuSans-30" transform="translate(127.246094 0)"/>
       <use xlink:href="#DejaVuSans-30" transform="translate(190.869141 0)"/>
      </g>
     </g>
    </g>
    <g id="xtick_5">
     <g id="line2d_5">
      <g>
       <use xlink:href="#m5542c50b1e" x="473.670938" y="351.408" style="stroke: #000000; stroke-width: 0.8"/>
      </g>
     </g>
     <g id="text_5">
      <!-- 4000 -->
      <g transform="translate(455.855938 369.045812) scale(0.14 -0.14)">
       <use xlink:href="#DejaVuSans-34"/>
       <use xlink:href="#DejaVuSans-30" transform="translate(63.623047 0)"/>
       <use xlink:href="#DejaVuSans-30" transform="translate(127.246094 0)"/>
       <use xlink:href="#DejaVuSans-30" transform="translate(190.869141 0)"/>
      </g>
     </g>
    </g>
    <g id="text_6">
     <!-- East (m) -->
     <g transform="translate(265.502031 386.595187) scale(0.14 -0.14)">
      <defs>
       <path id="DejaVuSans-45" d="M 628 4666 
L 3578 4666 
L 3578 4134 
L 1259 4134 
L 1259 2753 
L 3481 2753 
L 3481 2222 
L 1259 2222 
L 1259 531 
L 3634 531 
L 3634 0 
L 628 0 
L 628 4666 
z
" transform="scale(0.015625)"/>
       <path id="DejaVuSans-61" d="M 2194 1759 
Q 1497 1759 1228 1600 
Q 959 1441 959 1056 
Q 959 750 1161 570 
Q 1363 391 1709 391 
Q 2188 391 2477 730 
Q 2766 1069 2766 1631 
L 2766 1759 
L 2194 1759 
z
M 3341 1997 
L 3341 0 
L 2766 0 
L 2766 531 
Q 2569 213 2275 61 
Q 1981 -91 1556 -91 
Q 1019 -91 701 211 
Q 384 513 384 1019 
Q 384 1609 779 1909 
Q 1175 2209 1959 2209 
L 2766 2209 
L 2766 2266 
Q 2766 2663 2505 2880 
Q 2244 3097 1772 3097 
Q 1472 3097 1187 3025 
Q 903 2953 641 2809 
L 641 3341 
Q 956 3463 1253 3523 
Q 1550 3584 1831 3584 
Q 2591 3584 2966 3190 
Q 3341 2797 3341 1997 
z
" transform="scale(0.015625)"/>
       <path id="DejaVuSans-73" d="M 2834 3397 
L 2834 2853 
Q 2591 2978 2328 3040 
Q 2066 3103 1784 3103 
Q 1356 3103 1142 2972 
Q 928 2841 928 2578 
Q 928 2378 1081 2264 
Q 1234 2150 1697 2047 
L 1894 2003 
Q 2506 1872 2764 1633 
Q 3022 1394 3022 966 
Q 3022 478 2636 193 
Q 2250 -91 1575 -91 
Q 1294 -91 989 -36 
Q 684 19 347 128 
L 347 722 
Q 666 556 975 473 
Q 1284 391 1588 391 
Q 1994 391 2212 530 
Q 2431 669 2431 922 
Q 2431 1156 2273 1281 
Q 2116 1406 1581 1522 
L 1381 1569 
Q 847 1681 609 1914 
Q 372 2147 372 2553 
Q 372 3047 722 3315 
Q 1072 3584 1716 3584 
Q 2034 3584 2315 3537 
Q 2597 3491 2834 3397 
z
" transform="scale(0.015625)"/>
       <path id="DejaVuSans-74" d="M 1172 4494 
L 1172 3500 
L 2356 3500 
L 2356 3053 
L 1172 3053 
L 1172 1153 
Q 1172 725 1289 603 
Q 1406 481 1766 481 
L 2356 481 
L 2356 0 
L 1766 0 
Q 1100 0 847 248 
Q 594 497 594 1153 
L 594 3053 
L 172 3053 
L 172 3500 
L 594 3500 
L 594 4494 
L 1172 4494 
z
" transform="scale(0.015625)"/>
       <path id="DejaVuSans-20" transform="scale(0.015625)"/>
       <path id="DejaVuSans-28" d="M 1984 4856 
Q 1566 4138 1362 3434 
Q 1159 2731 1159 2009 
Q 1159 1288 1364 580 
Q 1569 -128 1984 -844 
L 1484 -844 
Q 1016 -109 783 600 
Q 550 1309 550 2009 
Q 550 2706 781 3412 
Q 1013 4119 1484 4856 
L 1984 4856 
z
" transform="scale(0.015625)"/>
       <path id="DejaVuSans-6d" d="M 3328 2828 
Q 3544 3216 3844 3400 
Q 4144 3584 4550 3584 
Q 5097 3584 5394 3201 
Q 5691 2819 5691 2113 
L 5691 0 
L 5113 0 
L 5113 2094 
Q 5113 2597 4934 2840 
Q 4756 3084 4391 3084 
Q 3944 3084 3684 2787 
Q 3425 2491 3425 1978 
L 3425 0 
L 2847 0 
L 2847 2094 
Q 2847 2600 2669 2842 
Q 2491 3084 2119 3084 
Q 1678 3084 1418 2786 
Q 1159 2488 1159 1978 
L 1159 0 
L 581 0 
L 581 3500 
L 1159 3500 
L 1159 2956 
Q 1356 3278 1631 3431 
Q 1906 3584 2284 3584 
Q 2666 3584 2933 3390 
Q 3200 3197 3328 2828 
z
" transform="scale(0.015625)"/>
       <path id="DejaVuSans-29" d="M 513 4856 
L 1013 4856 
Q 1481 4119 1714 3412 
Q 1947 2706 1947 2009 
Q 1947 1309 1714 600 
Q 1481 -109 1013 -844 
L 513 -844 
Q 928 -128 1133 580 
Q 1338 1288 1338 2009 
Q 1338 2731 1133 3434 
Q 928 4138 513 4856 
z
" transform="scale(0.015625)"/>
      </defs>
      <use xlink:href="#DejaVuSans-45"/>
      <use xlink:href="#DejaVuSans-61" transform="translate(63.183594 0)"/>
      <use xlink:href="#DejaVuSans-73" transform="translate(124.462891 0)"/>
      <use xlink:href="#DejaVuSans-74" transform="translate(176.5625 0)"/>
      <use xlink:href="#DejaVuSans-20" transform="translate(215.771484 0)"/>
      <use xlink:href="#DejaVuSans-28" transform="translate(247.558594 0)"/>
      <use xlink:href="#DejaVuSans-6d" transform="translate(286.572266 0)"/>
      <use xlink:href="#DejaVuSans-29" transform="translate(383.984375 0)"/>
     </g>
    </g>
   </g>
   <g id="matplotlib.axis_2">
    <g id="ytick_1">
     <g id="line2d_6">
      <defs>
       <path id="m3b119a2f8b" d="M 0 0 
L -3.5 0 
" style="stroke: #000000; stroke-width: 0.8"/>
      </defs>
      <g>
       <use xlink:href="#m3b119a2f8b" x="71.910938" y="318.144" style="stroke: #000000; stroke-width: 0.8"/>
      </g>
     </g>
     <g id="text_7">
      <!-- −4000 -->
      <g transform="translate(17.549375 323.462906) scale(0.14 -0.14)">
       <use xlink:href="#DejaVuSans-2212"/>
       <use xlink:href="#DejaVuSans-34" transform="translate(83.789062 0)"/>
       <use xlink:href="#DejaVuSans-30" transform="translate(147.412109 0)"/>
       <use xlink:href="#DejaVuSans-30" transform="translate(211.035156 0)"/>
       <use xlink:href="#DejaVuSans-30" transform="translate(274.658203 0)"/>
      </g>
     </g>
    </g>
    <g id="ytick_2">
     <g id="line2d_7">
      <g>
       <use xlink:href="#m3b119a2f8b" x="71.910938" y="251.616" style="stroke: #000000; stroke-width: 0.8"/>
      </g>
     </g>
     <g id="text_8">
      <!-- −2000 -->
      <g transform="translate(17.549375 256.934906) scale(0.14 -0.14)">
       <use xlink:href="#DejaVuSans-2212"/>
       <use xlink:href="#DejaVuSans-32" transform="translate(83.789062 0)"/>
       <use xlink:href="#DejaVuSans-30" transform="translate(147.412109 0)"/>
       <use xlink:href="#DejaVuSans-30" transform="translate(211.035156 0)"/>
       <use xlink:href="#DejaVuSans-30" transform="translate(274.658203 0)"/>
      </g>
     </g>
    </g>
    <g id="ytick_3">
     <g id="line2d_8">
      <g>
       <use xlink:href="#m3b119a2f8b" x="71.910938" y="185.088" style="stroke: #000000; stroke-width: 0.8"/>
      </g>
     </g>
     <g id="text_9">
      <!-- 0 -->
      <g transform="translate(56.003438 190.406906) scale(0.14 -0.14)">
       <use xlink:href="#DejaVuSans-30"/>
      </g>
     </g>
    </g>
    <g id="ytick_4">
     <g id="line2d_9">
      <g>
       <use xlink:href="#m3b119a2f8b" x="71.910938" y="118.56" style="stroke: #000000; stroke-width: 0.8"/>
      </g>
     </g>
     <g id="text_10">
      <!-- 2000 -->
      <g transform="translate(29.280938 123.878906) scale(0.14 -0.14)">
       <use xlink:href="#DejaVuSans-32"/>
       <use xlink:href="#DejaVuSans-30" transform="translate(63.623047 0)"/>
       <use xlink:href="#DejaVuSans-30" transform="translate(127.246094 0)"/>
       <use xlink:href="#DejaVuSans-30" transform="translate(190.869141 0)"/>
      </g>
     </g>
    </g>
    <g id="ytick_5">
     <g id="line2d_10">
      <g>
       <use xlink:href="#m3b119a2f8b" x="71.910938" y="52.032" style="stroke: #000000; stroke-width: 0.8"/>
      </g>
     </g>
     <g id="text_11">
      <!-- 4000 -->
      <g transform="translate(29.280938 57.350906) scale(0.14 -0.14)">
       <use xlink:href="#DejaVuSans-34"/>
       <use xlink:href="#DejaVuSans-30" transform="translate(63.623047 0)"/>
       <use xlink:href="#DejaVuSans-30" transform="translate(127.246094 0)"/>
       <use xlink:href="#DejaVuSans-30" transform="translate(190.869141 0)"/>
      </g>
     </g>
    </g>
    <g id="text_12">
     <!-- North (m) -->
     <g transform="translate(10.637812 219.171437) rotate(-90) scale(0.14 -0.14)">
      <defs>
       <path id="DejaVuSans-4e" d="M 628 4666 
L 1478 4666 
L 3547 763 
L 3547 4666 
L 4159 4666 
L 4159 0 
L 3309 0 
L 1241 3903 
L 1241 0 
L 628 0 
L 628 4666 
z
" transform="scale(0.015625)"/>
       <path id="DejaVuSans-6f" d="M 1959 3097 
Q 1497 3097 1228 2736 
Q 959 2375 959 1747 
Q 959 1119 1226 758 
Q 1494 397 1959 397 
Q 2419 397 2687 759 
Q 2956 1122 2956 1747 
Q 2956 2369 2687 2733 
Q 2419 3097 1959 3097 
z
M 1959 3584 
Q 2709 3584 3137 3096 
Q 3566 2609 3566 1747 
Q 3566 888 3137 398 
Q 2709 -91 1959 -91 
Q 1206 -91 779 398 
Q 353 888 353 1747 
Q 353 2609 779 3096 
Q 1206 3584 1959 3584 
z
" transform="scale(0.015625)"/>
       <path id="DejaVuSans-72" d="M 2631 2963 
Q 2534 3019 2420 3045 
Q 2306 3072 2169 3072 
Q 1681 3072 1420 2755 
Q 1159 2438 1159 1844 
L 1159 0 
L 581 0 
L 581 3500 
L 1159 3500 
L 1159 2956 
Q 1341 3275 1631 3429 
Q 1922 3584 2338 3584 
Q 2397 3584 2469 3576 
Q 2541 3569 2628 3553 
L 2631 2963 
z
" transform="scale(0.015625)"/>
       <path id="DejaVuSans-68" d="M 3513 2113 
L 3513 0 
L 2938 0 
L 2938 2094 
Q 2938 2591 2744 2837 
Q 2550 3084 2163 3084 
Q 1697 3084 1428 2787 
Q 1159 2491 1159 1978 
L 1159 0 
L 581 0 
L 581 4863 
L 1159 4863 
L 1159 2956 
Q 1366 3272 1645 3428 
Q 1925 3584 2291 3584 
Q 2894 3584 3203 3211 
Q 3513 2838 3513 2113 
z
" transform="scale(0.015625)"/>
      </defs>
      <use xlink:href="#DejaVuSans-4e"/>
      <use xlink:href="#DejaVuSans-6f" transform="translate(74.804688 0)"/>
      <use xlink:href="#DejaVuSans-72" transform="translate(135.986328 0)"/>
      <use xlink:href="#DejaVuSans-74" transform="translate(177.099609 0)"/>
      <use xlink:href="#DejaVuSans-68" transform="translate(216.308594 0)"/>
      <use xlink:href="#DejaVuSans-20" transform="translate(279.6875 0)"/>
      <use xlink:href="#DejaVuSans-28" transform="translate(311.474609 0)"/>
      <use xlink:href="#DejaVuSans-6d" transform="translate(350.488281 0)"/>
      <use xlink:href="#DejaVuSans-29" transform="translate(447.900391 0)"/>
     </g>
    </g>
   </g>
   <g id="line2d_11">
    <path d="M 71.910938 185.088 
L 518.310938 185.088 
" clip-path="url(#p5f8c958148)" style="fill: none; stroke: #000000; stroke-width: 0.5; stroke-linecap: square"/>
   </g>
   <g id="line2d_12">
    <path d="M 295.110938 351.408 
L 295.110938 18.768 
" clip-path="url(#p5f8c958148)" style="fill: none; stroke: #000000; stroke-width: 0.5; stroke-linecap: square"/>
   </g>
   <g id="patch_9">
    <path d="M 71.910938 351.408 
L 71.910938 18.768 
" style="fill: none; stroke: #000000; stroke-width: 0.8; stroke-linejoin: miter; stroke-linecap: square"/>
   </g>
   <g id="patch_10">
    <path d="M 518.310938 351.408 
L 518.310938 18.768 
" style="fill: none; stroke: #000000; stroke-width: 0.8; stroke-linejoin: miter; stroke-linecap: square"/>
   </g>
   <g id="patch_11">
    <path d="M 71.910938 351.408 
L 518.310938 351.408 
" style="fill: none; stroke: #000000; stroke-width: 0.8; stroke-linejoin: miter; stroke-linecap: square"/>
   </g>
   <g id="patch_12">
    <path d="M 71.910938 18.768 
L 518.310938 18.768 
" style="fill: none; stroke: #000000; stroke-width: 0.8; stroke-linejoin: miter; stroke-linecap: square"/>
   </g>
   <g id="text_13">
    <!-- 1$\sigma$, 2$\sigma$ and 3$\sigma$ Dispersion Ellipses: Apogee and Lading Points -->
    <g transform="translate(40.506938 12.768) scale(0.168 -0.168)">
     <defs>
      <path id="DejaVuSans-31" d="M 794 531 
L 1825 531 
L 1825 4091 
L 703 3866 
L 703 4441 
L 1819 4666 
L 2450 4666 
L 2450 531 
L 3481 531 
L 3481 0 
L 794 0 
L 794 531 
z
" transform="scale(0.015625)"/>
      <path id="DejaVuSans-Oblique-3c3" d="M 2219 3044 
Q 1744 3044 1422 2700 
Q 1081 2341 969 1747 
Q 844 1119 1044 756 
Q 1241 397 1706 397 
Q 2166 397 2503 759 
Q 2844 1122 2966 1747 
Q 3075 2319 2881 2700 
Q 2700 3044 2219 3044 
z
M 2309 3503 
L 4219 3500 
L 4106 2925 
L 3463 2925 
Q 3706 2438 3575 1747 
Q 3406 888 2884 400 
Q 2359 -91 1609 -91 
Q 856 -91 525 400 
Q 194 888 363 1747 
Q 528 2609 1050 3097 
Q 1484 3503 2309 3503 
z
" transform="scale(0.015625)"/>
      <path id="DejaVuSans-2c" d="M 750 794 
L 1409 794 
L 1409 256 
L 897 -744 
L 494 -744 
L 750 256 
L 750 794 
z
" transform="scale(0.015625)"/>
      <path id="DejaVuSans-6e" d="M 3513 2113 
L 3513 0 
L 2938 0 
L 2938 2094 
Q 2938 2591 2744 2837 
Q 2550 3084 2163 3084 
Q 1697 3084 1428 2787 
Q 1159 2491 1159 1978 
L 1159 0 
L 581 0 
L 581 3500 
L 1159 3500 
L 1159 2956 
Q 1366 3272 1645 3428 
Q 1925 3584 2291 3584 
Q 2894 3584 3203 3211 
Q 3513 2838 3513 2113 
z
" transform="scale(0.015625)"/>
      <path id="DejaVuSans-64" d="M 2906 2969 
L 2906 4863 
L 3481 4863 
L 3481 0 
L 2906 0 
L 2906 525 
Q 2725 213 2448 61 
Q 2172 -91 1784 -91 
Q 1150 -91 751 415 
Q 353 922 353 1747 
Q 353 2572 751 3078 
Q 1150 3584 1784 3584 
Q 2172 3584 2448 3432 
Q 2725 3281 2906 2969 
z
M 947 1747 
Q 947 1113 1208 752 
Q 1469 391 1925 391 
Q 2381 391 2643 752 
Q 2906 1113 2906 1747 
Q 2906 2381 2643 2742 
Q 2381 3103 1925 3103 
Q 1469 3103 1208 2742 
Q 947 2381 947 1747 
z
" transform="scale(0.015625)"/>
      <path id="DejaVuSans-33" d="M 2597 2516 
Q 3050 2419 3304 2112 
Q 3559 1806 3559 1356 
Q 3559 666 3084 287 
Q 2609 -91 1734 -91 
Q 1441 -91 1130 -33 
Q 819 25 488 141 
L 488 750 
Q 750 597 1062 519 
Q 1375 441 1716 441 
Q 2309 441 2620 675 
Q 2931 909 2931 1356 
Q 2931 1769 2642 2001 
Q 2353 2234 1838 2234 
L 1294 2234 
L 1294 2753 
L 1863 2753 
Q 2328 2753 2575 2939 
Q 2822 3125 2822 3475 
Q 2822 3834 2567 4026 
Q 2313 4219 1838 4219 
Q 1578 4219 1281 4162 
Q 984 4106 628 3988 
L 628 4550 
Q 988 4650 1302 4700 
Q 1616 4750 1894 4750 
Q 2613 4750 3031 4423 
Q 3450 4097 3450 3541 
Q 3450 3153 3228 2886 
Q 3006 2619 2597 2516 
z
" transform="scale(0.015625)"/>
      <path id="DejaVuSans-44" d="M 1259 4147 
L 1259 519 
L 2022 519 
Q 2988 519 3436 956 
Q 3884 1394 3884 2338 
Q 3884 3275 3436 3711 
Q 2988 4147 2022 4147 
L 1259 4147 
z
M 628 4666 
L 1925 4666 
Q 3281 4666 3915 4102 
Q 4550 3538 4550 2338 
Q 4550 1131 3912 565 
Q 3275 0 1925 0 
L 628 0 
L 628 4666 
z
" transform="scale(0.015625)"/>
      <path id="DejaVuSans-69" d="M 603 3500 
L 1178 3500 
L 1178 0 
L 603 0 
L 603 3500 
z
M 603 4863 
L 1178 4863 
L 1178 4134 
L 603 4134 
L 603 4863 
z
" transform="scale(0.015625)"/>
      <path id="DejaVuSans-70" d="M 1159 525 
L 1159 -1331 
L 581 -1331 
L 581 3500 
L 1159 3500 
L 1159 2969 
Q 1341 3281 1617 3432 
Q 1894 3584 2278 3584 
Q 2916 3584 3314 3078 
Q 3713 2572 3713 1747 
Q 3713 922 3314 415 
Q 2916 -91 2278 -91 
Q 1894 -91 1617 61 
Q 1341 213 1159 525 
z
M 3116 1747 
Q 3116 2381 2855 2742 
Q 2594 3103 2138 3103 
Q 1681 3103 1420 2742 
Q 1159 2381 1159 1747 
Q 1159 1113 1420 752 
Q 1681 391 2138 391 
Q 2594 391 2855 752 
Q 3116 1113 3116 1747 
z
" transform="scale(0.015625)"/>
      <path id="DejaVuSans-65" d="M 3597 1894 
L 3597 1613 
L 953 1613 
Q 991 1019 1311 708 
Q 1631 397 2203 397 
Q 2534 397 2845 478 
Q 3156 559 3463 722 
L 3463 178 
Q 3153 47 2828 -22 
Q 2503 -91 2169 -91 
Q 1331 -91 842 396 
Q 353 884 353 1716 
Q 353 2575 817 3079 
Q 1281 3584 2069 3584 
Q 2775 3584 3186 3129 
Q 3597 2675 3597 1894 
z
M 3022 2063 
Q 3016 2534 2758 2815 
Q 2500 3097 2075 3097 
Q 1594 3097 1305 2825 
Q 1016 2553 972 2059 
L 3022 2063 
z
" transform="scale(0.015625)"/>
      <path id="DejaVuSans-6c" d="M 603 4863 
L 1178 4863 
L 1178 0 
L 603 0 
L 603 4863 
z
" transform="scale(0.015625)"/>
      <path id="DejaVuSans-3a" d="M 750 794 
L 1409 794 
L 1409 0 
L 750 0 
L 750 794 
z
M 750 3309 
L 1409 3309 
L 1409 2516 
L 750 2516 
L 750 3309 
z
" transform="scale(0.015625)"/>
      <path id="DejaVuSans-41" d="M 2188 4044 
L 1331 1722 
L 3047 1722 
L 2188 4044 
z
M 1831 4666 
L 2547 4666 
L 4325 0 
L 3669 0 
L 3244 1197 
L 1141 1197 
L 716 0 
L 50 0 
L 1831 4666 
z
" transform="scale(0.015625)"/>
      <path id="DejaVuSans-67" d="M 2906 1791 
Q 2906 2416 2648 2759 
Q 2391 3103 1925 3103 
Q 1463 3103 1205 2759 
Q 947 2416 947 1791 
Q 947 1169 1205 825 
Q 1463 481 1925 481 
Q 2391 481 2648 825 
Q 2906 1169 2906 1791 
z
M 3481 434 
Q 3481 -459 3084 -895 
Q 2688 -1331 1869 -1331 
Q 1566 -1331 1297 -1286 
Q 1028 -1241 775 -1147 
L 775 -588 
Q 1028 -725 1275 -790 
Q 1522 -856 1778 -856 
Q 2344 -856 2625 -561 
Q 2906 -266 2906 331 
L 2906 616 
Q 2728 306 2450 153 
Q 2172 0 1784 0 
Q 1141 0 747 490 
Q 353 981 353 1791 
Q 353 2603 747 3093 
Q 1141 3584 1784 3584 
Q 2172 3584 2450 3431 
Q 2728 3278 2906 2969 
L 2906 3500 
L 3481 3500 
L 3481 434 
z
" transform="scale(0.015625)"/>
      <path id="DejaVuSans-4c" d="M 628 4666 
L 1259 4666 
L 1259 531 
L 3531 531 
L 3531 0 
L 628 0 
L 628 4666 
z
" transform="scale(0.015625)"/>
      <path id="DejaVuSans-50" d="M 1259 4147 
L 1259 2394 
L 2053 2394 
Q 2494 2394 2734 2622 
Q 2975 2850 2975 3272 
Q 2975 3691 2734 3919 
Q 2494 4147 2053 4147 
L 1259 4147 
z
M 628 4666 
L 2053 4666 
Q 2838 4666 3239 4311 
Q 3641 3956 3641 3272 
Q 3641 2581 3239 2228 
Q 2838 1875 2053 1875 
L 1259 1875 
L 1259 0 
L 628 0 
L 628 4666 
z
" transform="scale(0.015625)"/>
     </defs>
     <use xlink:href="#DejaVuSans-31" transform="translate(0 0.015625)"/>
     <use xlink:href="#DejaVuSans-Oblique-3c3" transform="translate(63.623047 0.015625)"/>
     <use xlink:href="#DejaVuSans-2c" transform="translate(127.001953 0.015625)"/>
     <use xlink:href="#DejaVuSans-20" transform="translate(158.789062 0.015625)"/>
     <use xlink:href="#DejaVuSans-32" transform="translate(190.576172 0.015625)"/>
     <use xlink:href="#DejaVuSans-Oblique-3c3" transform="translate(254.199219 0.015625)"/>
     <use xlink:href="#DejaVuSans-20" transform="translate(317.578125 0.015625)"/>
     <use xlink:href="#DejaVuSans-61" transform="translate(349.365234 0.015625)"/>
     <use xlink:href="#DejaVuSans-6e" transform="translate(410.644531 0.015625)"/>
     <use xlink:href="#DejaVuSans-64" transform="translate(474.023438 0.015625)"/>
     <use xlink:href="#DejaVuSans-20" transform="translate(537.5 0.015625)"/>
     <use xlink:href="#DejaVuSans-33" transform="translate(569.287109 0.015625)"/>
     <use xlink:href="#DejaVuSans-Oblique-3c3" transform="translate(632.910156 0.015625)"/>
     <use xlink:href="#DejaVuSans-20" transform="translate(696.289062 0.015625)"/>
     <use xlink:href="#DejaVuSans-44" transform="translate(728.076172 0.015625)"/>
     <use xlink:href="#DejaVuSans-69" transform="translate(805.078125 0.015625)"/>
     <use xlink:href="#DejaVuSans-73" transform="translate(832.861328 0.015625)"/>
     <use xlink:href="#DejaVuSans-70" transform="translate(884.960938 0.015625)"/>
     <use xlink:href="#DejaVuSans-65" transform="translate(948.4375 0.015625)"/>
     <use xlink:href="#DejaVuSans-72" transform="translate(1009.960938 0.015625)"/>
     <use xlink:href="#DejaVuSans-73" transform="translate(1051.074219 0.015625)"/>
     <use xlink:href="#DejaVuSans-69" transform="translate(1103.173828 0.015625)"/>
     <use xlink:href="#DejaVuSans-6f" transform="translate(1130.957031 0.015625)"/>
     <use xlink:href="#DejaVuSans-6e" transform="translate(1192.138672 0.015625)"/>
     <use xlink:href="#DejaVuSans-20" transform="translate(1255.517578 0.015625)"/>
     <use xlink:href="#DejaVuSans-45" transform="translate(1287.304688 0.015625)"/>
     <use xlink:href="#DejaVuSans-6c" transform="translate(1350.488281 0.015625)"/>
     <use xlink:href="#DejaVuSans-6c" transform="translate(1378.271484 0.015625)"/>
     <use xlink:href="#DejaVuSans-69" transform="translate(1406.054688 0.015625)"/>
     <use xlink:href="#DejaVuSans-70" transform="translate(1433.837891 0.015625)"/>
     <use xlink:href="#DejaVuSans-73" transform="translate(1497.314453 0.015625)"/>
     <use xlink:href="#DejaVuSans-65" transform="translate(1549.414062 0.015625)"/>
     <use xlink:href="#DejaVuSans-73" transform="translate(1610.9375 0.015625)"/>
     <use xlink:href="#DejaVuSans-3a" transform="translate(1663.037109 0.015625)"/>
     <use xlink:href="#DejaVuSans-20" transform="translate(1696.728516 0.015625)"/>
     <use xlink:href="#DejaVuSans-41" transform="translate(1728.515625 0.015625)"/>
     <use xlink:href="#DejaVuSans-70" transform="translate(1796.923828 0.015625)"/>
     <use xlink:href="#DejaVuSans-6f" transform="translate(1860.400391 0.015625)"/>
     <use xlink:href="#DejaVuSans-67" transform="translate(1921.582031 0.015625)"/>
     <use xlink:href="#DejaVuSans-65" transform="translate(1985.058594 0.015625)"/>
     <use xlink:href="#DejaVuSans-65" transform="translate(2046.582031 0.015625)"/>
     <use xlink:href="#DejaVuSans-20" transform="translate(2108.105469 0.015625)"/>
     <use xlink:href="#DejaVuSans-61" transform="translate(2139.892578 0.015625)"/>
     <use xlink:href="#DejaVuSans-6e" transform="translate(2201.171875 0.015625)"/>
     <use xlink:href="#DejaVuSans-64" transform="translate(2264.550781 0.015625)"/>
     <use xlink:href="#DejaVuSans-20" transform="translate(2328.027344 0.015625)"/>
     <use xlink:href="#DejaVuSans-4c" transform="translate(2359.814453 0.015625)"/>
     <use xlink:href="#DejaVuSans-61" transform="translate(2415.527344 0.015625)"/>
     <use xlink:href="#DejaVuSans-64" transform="translate(2476.806641 0.015625)"/>
     <use xlink:href="#DejaVuSans-69" transform="translate(2540.283203 0.015625)"/>
     <use xlink:href="#DejaVuSans-6e" transform="translate(2568.066406 0.015625)"/>
     <use xlink:href="#DejaVuSans-67" transform="translate(2631.445312 0.015625)"/>
     <use xlink:href="#DejaVuSans-20" transform="translate(2694.921875 0.015625)"/>
     <use xlink:href="#DejaVuSans-50" transform="translate(2726.708984 0.015625)"/>
     <use xlink:href="#DejaVuSans-6f" transform="translate(2787.011719 0.015625)"/>
     <use xlink:href="#DejaVuSans-69" transform="translate(2848.193359 0.015625)"/>
     <use xlink:href="#DejaVuSans-6e" transform="translate(2875.976562 0.015625)"/>
     <use xlink:href="#DejaVuSans-74" transform="translate(2939.355469 0.015625)"/>
     <use xlink:href="#DejaVuSans-73" transform="translate(2978.564453 0.015625)"/>
    </g>
   </g>
   <g id="legend_1">
    <g id="patch_13">
     <path d="M 293.525625 91.616125 
L 508.510938 91.616125 
Q 511.310938 91.616125 511.310938 88.816125 
L 511.310938 28.568 
Q 511.310938 25.768 508.510938 25.768 
L 293.525625 25.768 
Q 290.725625 25.768 290.725625 28.568 
L 290.725625 88.816125 
Q 290.725625 91.616125 293.525625 91.616125 
z
" style="fill: #ffffff; opacity: 0.8; stroke: #cccccc; stroke-linejoin: miter"/>
    </g>
    <g id="PathCollection_4">
     <g>
      <use xlink:href="#md45bffe012" x="310.325625" y="38.330812" style="stroke: #000000"/>
     </g>
    </g>
    <g id="text_14">
     <!-- Launch Point -->
     <g transform="translate(335.525625 42.005812) scale(0.14 -0.14)">
      <defs>
       <path id="DejaVuSans-75" d="M 544 1381 
L 544 3500 
L 1119 3500 
L 1119 1403 
Q 1119 906 1312 657 
Q 1506 409 1894 409 
Q 2359 409 2629 706 
Q 2900 1003 2900 1516 
L 2900 3500 
L 3475 3500 
L 3475 0 
L 2900 0 
L 2900 538 
Q 2691 219 2414 64 
Q 2138 -91 1772 -91 
Q 1169 -91 856 284 
Q 544 659 544 1381 
z
M 1991 3584 
L 1991 3584 
z
" transform="scale(0.015625)"/>
       <path id="DejaVuSans-63" d="M 3122 3366 
L 3122 2828 
Q 2878 2963 2633 3030 
Q 2388 3097 2138 3097 
Q 1578 3097 1268 2742 
Q 959 2388 959 1747 
Q 959 1106 1268 751 
Q 1578 397 2138 397 
Q 2388 397 2633 464 
Q 2878 531 3122 666 
L 3122 134 
Q 2881 22 2623 -34 
Q 2366 -91 2075 -91 
Q 1284 -91 818 406 
Q 353 903 353 1747 
Q 353 2603 823 3093 
Q 1294 3584 2113 3584 
Q 2378 3584 2631 3529 
Q 2884 3475 3122 3366 
z
" transform="scale(0.015625)"/>
      </defs>
      <use xlink:href="#DejaVuSans-4c"/>
      <use xlink:href="#DejaVuSans-61" transform="translate(55.712891 0)"/>
      <use xlink:href="#DejaVuSans-75" transform="translate(116.992188 0)"/>
      <use xlink:href="#DejaVuSans-6e" transform="translate(180.371094 0)"/>
      <use xlink:href="#DejaVuSans-63" transform="translate(243.75 0)"/>
      <use xlink:href="#DejaVuSans-68" transform="translate(298.730469 0)"/>
      <use xlink:href="#DejaVuSans-20" transform="translate(362.109375 0)"/>
      <use xlink:href="#DejaVuSans-50" transform="translate(393.896484 0)"/>
      <use xlink:href="#DejaVuSans-6f" transform="translate(450.574219 0)"/>
      <use xlink:href="#DejaVuSans-69" transform="translate(511.755859 0)"/>
      <use xlink:href="#DejaVuSans-6e" transform="translate(539.539062 0)"/>
      <use xlink:href="#DejaVuSans-74" transform="translate(602.917969 0)"/>
     </g>
    </g>
    <g id="PathCollection_5">
     <g>
      <use xlink:href="#m0ee2a1f561" x="310.325625" y="58.880187" style="fill: #008000; stroke: #008000"/>
     </g>
    </g>
    <g id="text_15">
     <!-- Simulated Apogee -->
     <g transform="translate(335.525625 62.555187) scale(0.14 -0.14)">
      <defs>
       <path id="DejaVuSans-53" d="M 3425 4513 
L 3425 3897 
Q 3066 4069 2747 4153 
Q 2428 4238 2131 4238 
Q 1616 4238 1336 4038 
Q 1056 3838 1056 3469 
Q 1056 3159 1242 3001 
Q 1428 2844 1947 2747 
L 2328 2669 
Q 3034 2534 3370 2195 
Q 3706 1856 3706 1288 
Q 3706 609 3251 259 
Q 2797 -91 1919 -91 
Q 1588 -91 1214 -16 
Q 841 59 441 206 
L 441 856 
Q 825 641 1194 531 
Q 1563 422 1919 422 
Q 2459 422 2753 634 
Q 3047 847 3047 1241 
Q 3047 1584 2836 1778 
Q 2625 1972 2144 2069 
L 1759 2144 
Q 1053 2284 737 2584 
Q 422 2884 422 3419 
Q 422 4038 858 4394 
Q 1294 4750 2059 4750 
Q 2388 4750 2728 4690 
Q 3069 4631 3425 4513 
z
" transform="scale(0.015625)"/>
      </defs>
      <use xlink:href="#DejaVuSans-53"/>
      <use xlink:href="#DejaVuSans-69" transform="translate(63.476562 0)"/>
      <use xlink:href="#DejaVuSans-6d" transform="translate(91.259766 0)"/>
      <use xlink:href="#DejaVuSans-75" transform="translate(188.671875 0)"/>
      <use xlink:href="#DejaVuSans-6c" transform="translate(252.050781 0)"/>
      <use xlink:href="#DejaVuSans-61" transform="translate(279.833984 0)"/>
      <use xlink:href="#DejaVuSans-74" transform="translate(341.113281 0)"/>
      <use xlink:href="#DejaVuSans-65" transform="translate(380.322266 0)"/>
      <use xlink:href="#DejaVuSans-64" transform="translate(441.845703 0)"/>
      <use xlink:href="#DejaVuSans-20" transform="translate(505.322266 0)"/>
      <use xlink:href="#DejaVuSans-41" transform="translate(537.109375 0)"/>
      <use xlink:href="#DejaVuSans-70" transform="translate(605.517578 0)"/>
      <use xlink:href="#DejaVuSans-6f" transform="translate(668.994141 0)"/>
      <use xlink:href="#DejaVuSans-67" transform="translate(730.175781 0)"/>
      <use xlink:href="#DejaVuSans-65" transform="translate(793.652344 0)"/>
      <use xlink:href="#DejaVuSans-65" transform="translate(855.175781 0)"/>
     </g>
    </g>
    <g id="PathCollection_6">
     <g>
      <use xlink:href="#m12510a4d74" x="310.325625" y="79.429562" style="fill: #0000ff; stroke: #0000ff"/>
     </g>
    </g>
    <g id="text_16">
     <!-- Simulated Landing Point -->
     <g transform="translate(335.525625 83.104562) scale(0.14 -0.14)">
      <use xlink:href="#DejaVuSans-53"/>
      <use xlink:href="#DejaVuSans-69" transform="translate(63.476562 0)"/>
      <use xlink:href="#DejaVuSans-6d" transform="translate(91.259766 0)"/>
      <use xlink:href="#DejaVuSans-75" transform="translate(188.671875 0)"/>
      <use xlink:href="#DejaVuSans-6c" transform="translate(252.050781 0)"/>
      <use xlink:href="#DejaVuSans-61" transform="translate(279.833984 0)"/>
      <use xlink:href="#DejaVuSans-74" transform="translate(341.113281 0)"/>
      <use xlink:href="#DejaVuSans-65" transform="translate(380.322266 0)"/>
      <use xlink:href="#DejaVuSans-64" transform="translate(441.845703 0)"/>
      <use xlink:href="#DejaVuSans-20" transform="translate(505.322266 0)"/>
      <use xlink:href="#DejaVuSans-4c" transform="translate(537.109375 0)"/>
      <use xlink:href="#DejaVuSans-61" transform="translate(592.822266 0)"/>
      <use xlink:href="#DejaVuSans-6e" transform="translate(654.101562 0)"/>
      <use xlink:href="#DejaVuSans-64" transform="translate(717.480469 0)"/>
      <use xlink:href="#DejaVuSans-69" transform="translate(780.957031 0)"/>
      <use xlink:href="#DejaVuSans-6e" transform="translate(808.740234 0)"/>
      <use xlink:href="#DejaVuSans-67" transform="translate(872.119141 0)"/>
      <use xlink:href="#DejaVuSans-20" transform="translate(935.595703 0)"/>
      <use xlink:href="#DejaVuSans-50" transform="translate(967.382812 0)"/>
      <use xlink:href="#DejaVuSans-6f" transform="translate(1024.060547 0)"/>
      <use xlink:href="#DejaVuSans-69" transform="translate(1085.242188 0)"/>
      <use xlink:href="#DejaVuSans-6e" transform="translate(1113.025391 0)"/>
      <use xlink:href="#DejaVuSans-74" transform="translate(1176.404297 0)"/>
     </g>
    </g>
   </g>
  </g>
 </g>
 <defs>
  <clipPath id="p5f8c958148">
   <rect x="71.910938" y="18.768" width="446.4" height="332.64"/>
  </clipPath>
 </defs>
</svg>
