<?xml version="1.0" encoding="utf-8" standalone="no"?>
<!DOCTYPE svg PUBLIC "-//W3C//DTD SVG 1.1//EN"
  "http://www.w3.org/Graphics/SVG/1.1/DTD/svg11.dtd">
<svg xmlns:xlink="http://www.w3.org/1999/xlink" width="549.714938pt" height="389.50675pt" viewBox="0 0 549.714938 389.50675" xmlns="http://www.w3.org/2000/svg" version="1.1">
 <metadata>
  <rdf:RDF xmlns:dc="http://purl.org/dc/elements/1.1/" xmlns:cc="http://creativecommons.org/ns#" xmlns:rdf="http://www.w3.org/1999/02/22-rdf-syntax-ns#">
   <cc:Work>
    <dc:type rdf:resource="http://purl.org/dc/dcmitype/StillImage"/>
    <dc:date>2025-03-12T18:09:15.292861</dc:date>
    <dc:format>image/svg+xml</dc:format>
    <dc:creator>
     <cc:Agent>
      <dc:title>Matplotlib v3.9.2, https://matplotlib.org/</dc:title>
     </cc:Agent>
    </dc:creator>
   </cc:Work>
  </rdf:RDF>
 </metadata>
 <defs>
  <style type="text/css">*{stroke-linejoin: round; stroke-linecap: butt}</style>
 </defs>
 <g id="figure_1">
  <g id="patch_1">
   <path d="M 0 389.50675 
L 549.714938 389.50675 
L 549.714938 0 
L 0 0 
z
" style="fill: #ffffff"/>
  </g>
  <g id="axes_1">
   <g id="patch_2">
    <path d="M 71.910938 351.408 
L 518.310938 351.408 
L 518.310938 18.768 
L 71.910938 18.768 
z
" style="fill: #ffffff"/>
   </g>
   <g id="patch_3">
    <path d="M 425.018595 115.943309 
C 421.200378 116.738089 417.587344 117.63197 414.975223 118.428086 
C 412.363102 119.224202 410.965162 119.857553 411.089282 120.188651 
C 411.213402 120.519749 412.849449 120.521561 415.637102 120.193689 
C 418.424756 119.865816 422.136416 119.235028 425.954634 118.440248 
C 429.772851 117.645468 433.385884 116.751586 435.998005 115.95547 
C 438.610127 115.159354 440.008067 114.526003 439.883947 114.194905 
C 439.759827 113.863807 438.12378 113.861995 435.336126 114.189868 
C 432.548473 114.517741 428.836812 115.148529 425.018595 115.943309 
z
" clip-path="url(#p67f06b729d)" style="fill: #0000ff; fill-opacity: 0.2; stroke: #000000; stroke-linejoin: miter"/>
   </g>
   <g id="patch_4">
    <path d="M 424.550576 114.69484 
C 416.914142 116.2844 409.688074 118.072162 404.463832 119.664394 
C 399.23959 121.256626 396.443709 122.523328 396.691949 123.185524 
C 396.940189 123.84772 400.212283 123.851344 405.78759 123.195599 
C 411.362897 122.539854 418.786218 121.278277 426.422653 119.688717 
C 434.059087 118.099157 441.285154 116.311394 446.509397 114.719162 
C 451.733639 113.126931 454.52952 111.860228 454.28128 111.198033 
C 454.03304 110.535837 450.760946 110.532212 445.185639 111.187958 
C 439.610332 111.843703 432.187011 113.10528 424.550576 114.69484 
z
" clip-path="url(#p67f06b729d)" style="fill: #0000ff; fill-opacity: 0.2; stroke: #000000; stroke-linejoin: miter"/>
   </g>
   <g id="patch_5">
    <path d="M 424.082557 113.44637 
C 412.627905 115.83071 401.788804 118.512355 393.952441 120.900702 
C 386.116078 123.28905 381.922256 125.189103 382.294616 126.182397 
C 382.666977 127.175691 387.575118 127.181128 395.938078 126.197509 
C 404.301039 125.213891 415.43602 123.321527 426.890672 120.937187 
C 438.345324 118.552847 449.184424 115.871202 457.020788 113.482854 
C 464.857151 111.094507 469.050973 109.194453 468.678612 108.20116 
C 468.306252 107.207866 463.398111 107.202429 455.035151 108.186047 
C 446.67219 109.169665 435.537209 111.06203 424.082557 113.44637 
z
" clip-path="url(#p67f06b729d)" style="fill: #0000ff; fill-opacity: 0.2; stroke: #000000; stroke-linejoin: miter"/>
   </g>
   <g id="patch_6">
    <path d="M 231.082485 172.630059 
C 228.91809 172.575185 226.840302 172.560865 225.30673 172.590253 
C 223.773158 172.619641 222.909011 172.690337 222.904608 172.786772 
C 222.900205 172.883206 223.755905 172.997506 225.28325 173.104497 
C 226.810595 173.211488 228.884884 173.302436 231.049279 173.35731 
C 233.213674 173.412184 235.291462 173.426504 236.825034 173.397116 
C 238.358606 173.367729 239.222753 173.297033 239.227156 173.200598 
C 239.231559 173.104163 238.375859 172.989864 236.848514 172.882873 
C 235.321169 172.775881 233.24688 172.684933 231.082485 172.630059 
z
" clip-path="url(#p67f06b729d)" style="fill: #00ff00; fill-opacity: 0.2; stroke: #000000; stroke-linejoin: miter"/>
   </g>
   <g id="patch_7">
    <path d="M 231.099088 172.266434 
C 226.770298 172.156686 222.614722 172.128046 219.547578 172.186821 
C 216.480434 172.245597 214.752141 172.386989 214.743334 172.579858 
C 214.734528 172.772728 216.445928 173.001327 219.500618 173.215309 
C 222.555308 173.429292 226.703886 173.611187 231.032676 173.720935 
C 235.361466 173.830684 239.517042 173.859324 242.584186 173.800548 
C 245.65133 173.741773 247.379623 173.60038 247.38843 173.407511 
C 247.397236 173.214642 245.685836 172.986043 242.631146 172.77206 
C 239.576456 172.558078 235.427878 172.376182 231.099088 172.266434 
z
" clip-path="url(#p67f06b729d)" style="fill: #00ff00; fill-opacity: 0.2; stroke: #000000; stroke-linejoin: miter"/>
   </g>
   <g id="patch_8">
    <path d="M 231.115691 171.902809 
C 224.622505 171.738187 218.389142 171.695227 213.788426 171.78339 
C 209.18771 171.871553 206.59527 172.083642 206.58206 172.372945 
C 206.568851 172.662249 209.135951 173.005148 213.717986 173.326121 
C 218.300021 173.647095 224.522888 173.919939 231.016073 174.084561 
C 237.509259 174.249183 243.742622 174.292143 248.343338 174.20398 
C 252.944054 174.115817 255.536494 173.903728 255.549703 173.614424 
C 255.562913 173.325121 252.995813 172.982222 248.413778 172.661248 
C 243.831743 172.340274 237.608876 172.067431 231.115691 171.902809 
z
" clip-path="url(#p67f06b729d)" style="fill: #00ff00; fill-opacity: 0.2; stroke: #000000; stroke-linejoin: miter"/>
   </g>
   <g id="PathCollection_1">
    <defs>
     <path id="mf8c7b42718" d="M 0 -2.738613 
L -0.614857 -0.846278 
L -2.604576 -0.846278 
L -0.994859 0.323249 
L -1.609716 2.215584 
L -0 1.046057 
L 1.609716 2.215584 
L 0.994859 0.323249 
L 2.604576 -0.846278 
L 0.614857 -0.846278 
z
" style="stroke: #000000"/>
    </defs>
    <g clip-path="url(#p67f06b729d)">
     <use xlink:href="#mf8c7b42718" x="295.110938" y="185.088" style="stroke: #000000"/>
    </g>
   </g>
   <g id="PathCollection_2">
    <defs>
     <path id="m1a265388fd" d="M 0 -1.118034 
L -1.118034 1.118034 
L 1.118034 1.118034 
z
" style="stroke: #008000"/>
    </defs>
    <g clip-path="url(#p67f06b729d)">
     <use xlink:href="#m1a265388fd" x="229.892746" y="172.638125" style="fill: #008000; stroke: #008000"/>
     <use xlink:href="#m1a265388fd" x="226.464929" y="172.659711" style="fill: #008000; stroke: #008000"/>
     <use xlink:href="#m1a265388fd" x="246.593999" y="174.244727" style="fill: #008000; stroke: #008000"/>
     <use xlink:href="#m1a265388fd" x="232.770573" y="173.207118" style="fill: #008000; stroke: #008000"/>
     <use xlink:href="#m1a265388fd" x="243.386635" y="173.115704" style="fill: #008000; stroke: #008000"/>
     <use xlink:href="#m1a265388fd" x="231.319975" y="173.121783" style="fill: #008000; stroke: #008000"/>
     <use xlink:href="#m1a265388fd" x="232.654038" y="173.015727" style="fill: #008000; stroke: #008000"/>
     <use xlink:href="#m1a265388fd" x="233.843706" y="172.443921" style="fill: #008000; stroke: #008000"/>
     <use xlink:href="#m1a265388fd" x="221.807915" y="173.237036" style="fill: #008000; stroke: #008000"/>
     <use xlink:href="#m1a265388fd" x="236.225179" y="173.487155" style="fill: #008000; stroke: #008000"/>
     <use xlink:href="#m1a265388fd" x="209.304036" y="172.782961" style="fill: #008000; stroke: #008000"/>
     <use xlink:href="#m1a265388fd" x="239.848597" y="173.17462" style="fill: #008000; stroke: #008000"/>
     <use xlink:href="#m1a265388fd" x="227.737575" y="173.364843" style="fill: #008000; stroke: #008000"/>
     <use xlink:href="#m1a265388fd" x="226.831101" y="172.369614" style="fill: #008000; stroke: #008000"/>
     <use xlink:href="#m1a265388fd" x="231.918847" y="173.102713" style="fill: #008000; stroke: #008000"/>
     <use xlink:href="#m1a265388fd" x="220.578883" y="172.772089" style="fill: #008000; stroke: #008000"/>
     <use xlink:href="#m1a265388fd" x="234.765386" y="173.633956" style="fill: #008000; stroke: #008000"/>
     <use xlink:href="#m1a265388fd" x="238.627341" y="172.579405" style="fill: #008000; stroke: #008000"/>
     <use xlink:href="#m1a265388fd" x="222.507161" y="172.748697" style="fill: #008000; stroke: #008000"/>
     <use xlink:href="#m1a265388fd" x="235.700016" y="173.20536" style="fill: #008000; stroke: #008000"/>
     <use xlink:href="#m1a265388fd" x="234.647227" y="173.357218" style="fill: #008000; stroke: #008000"/>
     <use xlink:href="#m1a265388fd" x="241.225041" y="172.60258" style="fill: #008000; stroke: #008000"/>
     <use xlink:href="#m1a265388fd" x="220.414461" y="172.693098" style="fill: #008000; stroke: #008000"/>
     <use xlink:href="#m1a265388fd" x="224.968831" y="172.340338" style="fill: #008000; stroke: #008000"/>
     <use xlink:href="#m1a265388fd" x="223.96092" y="172.611156" style="fill: #008000; stroke: #008000"/>
     <use xlink:href="#m1a265388fd" x="238.579382" y="173.417838" style="fill: #008000; stroke: #008000"/>
     <use xlink:href="#m1a265388fd" x="239.028373" y="173.20203" style="fill: #008000; stroke: #008000"/>
     <use xlink:href="#m1a265388fd" x="236.1851" y="173.040487" style="fill: #008000; stroke: #008000"/>
     <use xlink:href="#m1a265388fd" x="224.942754" y="172.772244" style="fill: #008000; stroke: #008000"/>
     <use xlink:href="#m1a265388fd" x="225.245735" y="172.868288" style="fill: #008000; stroke: #008000"/>
    </g>
   </g>
   <g id="PathCollection_3">
    <defs>
     <path id="mebf156ec4a" d="M -0 1.118034 
L 1.118034 -1.118034 
L -1.118034 -1.118034 
z
" style="stroke: #0000ff"/>
    </defs>
    <g clip-path="url(#p67f06b729d)">
     <use xlink:href="#mebf156ec4a" x="422.487748" y="116.891735" style="fill: #0000ff; stroke: #0000ff"/>
     <use xlink:href="#mebf156ec4a" x="417.769285" y="117.368197" style="fill: #0000ff; stroke: #0000ff"/>
     <use xlink:href="#mebf156ec4a" x="449.99916" y="114.575058" style="fill: #0000ff; stroke: #0000ff"/>
     <use xlink:href="#mebf156ec4a" x="432.21427" y="115.381626" style="fill: #0000ff; stroke: #0000ff"/>
     <use xlink:href="#mebf156ec4a" x="441.918878" y="114.892185" style="fill: #0000ff; stroke: #0000ff"/>
     <use xlink:href="#mebf156ec4a" x="424.676248" y="117.990309" style="fill: #0000ff; stroke: #0000ff"/>
     <use xlink:href="#mebf156ec4a" x="426.742811" y="116.786088" style="fill: #0000ff; stroke: #0000ff"/>
     <use xlink:href="#mebf156ec4a" x="427.656642" y="115.426567" style="fill: #0000ff; stroke: #0000ff"/>
     <use xlink:href="#mebf156ec4a" x="413.66813" y="120.117988" style="fill: #0000ff; stroke: #0000ff"/>
     <use xlink:href="#mebf156ec4a" x="431.091106" y="116.772642" style="fill: #0000ff; stroke: #0000ff"/>
     <use xlink:href="#mebf156ec4a" x="386.152453" y="126.111074" style="fill: #0000ff; stroke: #0000ff"/>
     <use xlink:href="#mebf156ec4a" x="444.046399" y="114.040863" style="fill: #0000ff; stroke: #0000ff"/>
     <use xlink:href="#mebf156ec4a" x="416.816461" y="119.921093" style="fill: #0000ff; stroke: #0000ff"/>
     <use xlink:href="#mebf156ec4a" x="418.272309" y="117.963175" style="fill: #0000ff; stroke: #0000ff"/>
     <use xlink:href="#mebf156ec4a" x="428.035967" y="116.653323" style="fill: #0000ff; stroke: #0000ff"/>
     <use xlink:href="#mebf156ec4a" x="403.479188" y="122.343446" style="fill: #0000ff; stroke: #0000ff"/>
     <use xlink:href="#mebf156ec4a" x="432.69226" y="116.463877" style="fill: #0000ff; stroke: #0000ff"/>
     <use xlink:href="#mebf156ec4a" x="441.878321" y="112.676933" style="fill: #0000ff; stroke: #0000ff"/>
     <use xlink:href="#mebf156ec4a" x="413.563365" y="120.210027" style="fill: #0000ff; stroke: #0000ff"/>
     <use xlink:href="#mebf156ec4a" x="439.828768" y="114.221405" style="fill: #0000ff; stroke: #0000ff"/>
     <use xlink:href="#mebf156ec4a" x="434.524862" y="115.48365" style="fill: #0000ff; stroke: #0000ff"/>
     <use xlink:href="#mebf156ec4a" x="443.035356" y="111.924595" style="fill: #0000ff; stroke: #0000ff"/>
     <use xlink:href="#mebf156ec4a" x="407.222321" y="119.235754" style="fill: #0000ff; stroke: #0000ff"/>
     <use xlink:href="#mebf156ec4a" x="413.786684" y="119.21472" style="fill: #0000ff; stroke: #0000ff"/>
     <use xlink:href="#mebf156ec4a" x="423.942728" y="114.141813" style="fill: #0000ff; stroke: #0000ff"/>
     <use xlink:href="#mebf156ec4a" x="427.600472" y="120.568945" style="fill: #0000ff; stroke: #0000ff"/>
     <use xlink:href="#mebf156ec4a" x="440.710317" y="113.022453" style="fill: #0000ff; stroke: #0000ff"/>
     <use xlink:href="#mebf156ec4a" x="437.887858" y="114.057429" style="fill: #0000ff; stroke: #0000ff"/>
     <use xlink:href="#mebf156ec4a" x="415.325211" y="119.320436" style="fill: #0000ff; stroke: #0000ff"/>
     <use xlink:href="#mebf156ec4a" x="407.572853" y="121.975947" style="fill: #0000ff; stroke: #0000ff"/>
    </g>
   </g>
   <g id="matplotlib.axis_1">
    <g id="xtick_1">
     <g id="line2d_1">
      <defs>
       <path id="mbe83efaaae" d="M 0 0 
L 0 3.5 
" style="stroke: #000000; stroke-width: 0.8"/>
      </defs>
      <g>
       <use xlink:href="#mbe83efaaae" x="116.550938" y="351.408" style="stroke: #000000; stroke-width: 0.8"/>
      </g>
     </g>
     <g id="text_1">
      <!-- −4000 -->
      <g transform="translate(92.870156 369.045812) scale(0.14 -0.14)">
       <defs>
        <path id="DejaVuSans-2212" d="M 678 2272 
L 4684 2272 
L 4684 1741 
L 678 1741 
L 678 2272 
z
" transform="scale(0.015625)"/>
        <path id="DejaVuSans-34" d="M 2419 4116 
L 825 1625 
L 2419 1625 
L 2419 4116 
z
M 2253 4666 
L 3047 4666 
L 3047 1625 
L 3713 1625 
L 3713 1100 
L 3047 1100 
L 3047 0 
L 2419 0 
L 2419 1100 
L 313 1100 
L 313 1709 
L 2253 4666 
z
" transform="scale(0.015625)"/>
        <path id="DejaVuSans-30" d="M 2034 4250 
Q 1547 4250 1301 3770 
Q 1056 3291 1056 2328 
Q 1056 1369 1301 889 
Q 1547 409 2034 409 
Q 2525 409 2770 889 
Q 3016 1369 3016 2328 
Q 3016 3291 2770 3770 
Q 2525 4250 2034 4250 
z
M 2034 4750 
Q 2819 4750 3233 4129 
Q 3647 3509 3647 2328 
Q 3647 1150 3233 529 
Q 2819 -91 2034 -91 
Q 1250 -91 836 529 
Q 422 1150 422 2328 
Q 422 3509 836 4129 
Q 1250 4750 2034 4750 
z
" transform="scale(0.015625)"/>
       </defs>
       <use xlink:href="#DejaVuSans-2212"/>
       <use xlink:href="#DejaVuSans-34" x="83.789062"/>
       <use xlink:href="#DejaVuSans-30" x="147.412109"/>
       <use xlink:href="#DejaVuSans-30" x="211.035156"/>
       <use xlink:href="#DejaVuSans-30" x="274.658203"/>
      </g>
     </g>
    </g>
    <g id="xtick_2">
     <g id="line2d_2">
      <g>
       <use xlink:href="#mbe83efaaae" x="205.830938" y="351.408" style="stroke: #000000; stroke-width: 0.8"/>
      </g>
     </g>
     <g id="text_2">
      <!-- −2000 -->
      <g transform="translate(182.150156 369.045812) scale(0.14 -0.14)">
       <defs>
        <path id="DejaVuSans-32" d="M 1228 531 
L 3431 531 
L 3431 0 
L 469 0 
L 469 531 
Q 828 903 1448 1529 
Q 2069 2156 2228 2338 
Q 2531 2678 2651 2914 
Q 2772 3150 2772 3378 
Q 2772 3750 2511 3984 
Q 2250 4219 1831 4219 
Q 1534 4219 1204 4116 
Q 875 4013 500 3803 
L 500 4441 
Q 881 4594 1212 4672 
Q 1544 4750 1819 4750 
Q 2544 4750 2975 4387 
Q 3406 4025 3406 3419 
Q 3406 3131 3298 2873 
Q 3191 2616 2906 2266 
Q 2828 2175 2409 1742 
Q 1991 1309 1228 531 
z
" transform="scale(0.015625)"/>
       </defs>
       <use xlink:href="#DejaVuSans-2212"/>
       <use xlink:href="#DejaVuSans-32" x="83.789062"/>
       <use xlink:href="#DejaVuSans-30" x="147.412109"/>
       <use xlink:href="#DejaVuSans-30" x="211.035156"/>
       <use xlink:href="#DejaVuSans-30" x="274.658203"/>
      </g>
     </g>
    </g>
    <g id="xtick_3">
     <g id="line2d_3">
      <g>
       <use xlink:href="#mbe83efaaae" x="295.110938" y="351.408" style="stroke: #000000; stroke-width: 0.8"/>
      </g>
     </g>
     <g id="text_3">
      <!-- 0 -->
      <g transform="translate(290.657188 369.045812) scale(0.14 -0.14)">
       <use xlink:href="#DejaVuSans-30"/>
      </g>
     </g>
    </g>
    <g id="xtick_4">
     <g id="line2d_4">
      <g>
       <use xlink:href="#mbe83efaaae" x="384.390938" y="351.408" style="stroke: #000000; stroke-width: 0.8"/>
      </g>
     </g>
     <g id="text_4">
      <!-- 2000 -->
      <g transform="translate(366.575938 369.045812) scale(0.14 -0.14)">
       <use xlink:href="#DejaVuSans-32"/>
       <use xlink:href="#DejaVuSans-30" x="63.623047"/>
       <use xlink:href="#DejaVuSans-30" x="127.246094"/>
       <use xlink:href="#DejaVuSans-30" x="190.869141"/>
      </g>
     </g>
    </g>
    <g id="xtick_5">
     <g id="line2d_5">
      <g>
       <use xlink:href="#mbe83efaaae" x="473.670938" y="351.408" style="stroke: #000000; stroke-width: 0.8"/>
      </g>
     </g>
     <g id="text_5">
      <!-- 4000 -->
      <g transform="translate(455.855938 369.045812) scale(0.14 -0.14)">
       <use xlink:href="#DejaVuSans-34"/>
       <use xlink:href="#DejaVuSans-30" x="63.623047"/>
       <use xlink:href="#DejaVuSans-30" x="127.246094"/>
       <use xlink:href="#DejaVuSans-30" x="190.869141"/>
      </g>
     </g>
    </g>
    <g id="text_6">
     <!-- East (m) -->
     <g transform="translate(265.502031 386.595187) scale(0.14 -0.14)">
      <defs>
       <path id="DejaVuSans-45" d="M 628 4666 
L 3578 4666 
L 3578 4134 
L 1259 4134 
L 1259 2753 
L 3481 2753 
L 3481 2222 
L 1259 2222 
L 1259 531 
L 3634 531 
L 3634 0 
L 628 0 
L 628 4666 
z
" transform="scale(0.015625)"/>
       <path id="DejaVuSans-61" d="M 2194 1759 
Q 1497 1759 1228 1600 
Q 959 1441 959 1056 
Q 959 750 1161 570 
Q 1363 391 1709 391 
Q 2188 391 2477 730 
Q 2766 1069 2766 1631 
L 2766 1759 
L 2194 1759 
z
M 3341 1997 
L 3341 0 
L 2766 0 
L 2766 531 
Q 2569 213 2275 61 
Q 1981 -91 1556 -91 
Q 1019 -91 701 211 
Q 384 513 384 1019 
Q 384 1609 779 1909 
Q 1175 2209 1959 2209 
L 2766 2209 
L 2766 2266 
Q 2766 2663 2505 2880 
Q 2244 3097 1772 3097 
Q 1472 3097 1187 3025 
Q 903 2953 641 2809 
L 641 3341 
Q 956 3463 1253 3523 
Q 1550 3584 1831 3584 
Q 2591 3584 2966 3190 
Q 3341 2797 3341 1997 
z
" transform="scale(0.015625)"/>
       <path id="DejaVuSans-73" d="M 2834 3397 
L 2834 2853 
Q 2591 2978 2328 3040 
Q 2066 3103 1784 3103 
Q 1356 3103 1142 2972 
Q 928 2841 928 2578 
Q 928 2378 1081 2264 
Q 1234 2150 1697 2047 
L 1894 2003 
Q 2506 1872 2764 1633 
Q 3022 1394 3022 966 
Q 3022 478 2636 193 
Q 2250 -91 1575 -91 
Q 1294 -91 989 -36 
Q 684 19 347 128 
L 347 722 
Q 666 556 975 473 
Q 1284 391 1588 391 
Q 1994 391 2212 530 
Q 2431 669 2431 922 
Q 2431 1156 2273 1281 
Q 2116 1406 1581 1522 
L 1381 1569 
Q 847 1681 609 1914 
Q 372 2147 372 2553 
Q 372 3047 722 3315 
Q 1072 3584 1716 3584 
Q 2034 3584 2315 3537 
Q 2597 3491 2834 3397 
z
" transform="scale(0.015625)"/>
       <path id="DejaVuSans-74" d="M 1172 4494 
L 1172 3500 
L 2356 3500 
L 2356 3053 
L 1172 3053 
L 1172 1153 
Q 1172 725 1289 603 
Q 1406 481 1766 481 
L 2356 481 
L 2356 0 
L 1766 0 
Q 1100 0 847 248 
Q 594 497 594 1153 
L 594 3053 
L 172 3053 
L 172 3500 
L 594 3500 
L 594 4494 
L 1172 4494 
z
" transform="scale(0.015625)"/>
       <path id="DejaVuSans-20" transform="scale(0.015625)"/>
       <path id="DejaVuSans-28" d="M 1984 4856 
Q 1566 4138 1362 3434 
Q 1159 2731 1159 2009 
Q 1159 1288 1364 580 
Q 1569 -128 1984 -844 
L 1484 -844 
Q 1016 -109 783 600 
Q 550 1309 550 2009 
Q 550 2706 781 3412 
Q 1013 4119 1484 4856 
L 1984 4856 
z
" transform="scale(0.015625)"/>
       <path id="DejaVuSans-6d" d="M 3328 2828 
Q 3544 3216 3844 3400 
Q 4144 3584 4550 3584 
Q 5097 3584 5394 3201 
Q 5691 2819 5691 2113 
L 5691 0 
L 5113 0 
L 5113 2094 
Q 5113 2597 4934 2840 
Q 4756 3084 4391 3084 
Q 3944 3084 3684 2787 
Q 3425 2491 3425 1978 
L 3425 0 
L 2847 0 
L 2847 2094 
Q 2847 2600 2669 2842 
Q 2491 3084 2119 3084 
Q 1678 3084 1418 2786 
Q 1159 2488 1159 1978 
L 1159 0 
L 581 0 
L 581 3500 
L 1159 3500 
L 1159 2956 
Q 1356 3278 1631 3431 
Q 1906 3584 2284 3584 
Q 2666 3584 2933 3390 
Q 3200 3197 3328 2828 
z
" transform="scale(0.015625)"/>
       <path id="DejaVuSans-29" d="M 513 4856 
L 1013 4856 
Q 1481 4119 1714 3412 
Q 1947 2706 1947 2009 
Q 1947 1309 1714 600 
Q 1481 -109 1013 -844 
L 513 -844 
Q 928 -128 1133 580 
Q 1338 1288 1338 2009 
Q 1338 2731 1133 3434 
Q 928 4138 513 4856 
z
" transform="scale(0.015625)"/>
      </defs>
      <use xlink:href="#DejaVuSans-45"/>
      <use xlink:href="#DejaVuSans-61" x="63.183594"/>
      <use xlink:href="#DejaVuSans-73" x="124.462891"/>
      <use xlink:href="#DejaVuSans-74" x="176.5625"/>
      <use xlink:href="#DejaVuSans-20" x="215.771484"/>
      <use xlink:href="#DejaVuSans-28" x="247.558594"/>
      <use xlink:href="#DejaVuSans-6d" x="286.572266"/>
      <use xlink:href="#DejaVuSans-29" x="383.984375"/>
     </g>
    </g>
   </g>
   <g id="matplotlib.axis_2">
    <g id="ytick_1">
     <g id="line2d_6">
      <defs>
       <path id="mc379449548" d="M 0 0 
L -3.5 0 
" style="stroke: #000000; stroke-width: 0.8"/>
      </defs>
      <g>
       <use xlink:href="#mc379449548" x="71.910938" y="318.144" style="stroke: #000000; stroke-width: 0.8"/>
      </g>
     </g>
     <g id="text_7">
      <!-- −4000 -->
      <g transform="translate(17.549375 323.462906) scale(0.14 -0.14)">
       <use xlink:href="#DejaVuSans-2212"/>
       <use xlink:href="#DejaVuSans-34" x="83.789062"/>
       <use xlink:href="#DejaVuSans-30" x="147.412109"/>
       <use xlink:href="#DejaVuSans-30" x="211.035156"/>
       <use xlink:href="#DejaVuSans-30" x="274.658203"/>
      </g>
     </g>
    </g>
    <g id="ytick_2">
     <g id="line2d_7">
      <g>
       <use xlink:href="#mc379449548" x="71.910938" y="251.616" style="stroke: #000000; stroke-width: 0.8"/>
      </g>
     </g>
     <g id="text_8">
      <!-- −2000 -->
      <g transform="translate(17.549375 256.934906) scale(0.14 -0.14)">
       <use xlink:href="#DejaVuSans-2212"/>
       <use xlink:href="#DejaVuSans-32" x="83.789062"/>
       <use xlink:href="#DejaVuSans-30" x="147.412109"/>
       <use xlink:href="#DejaVuSans-30" x="211.035156"/>
       <use xlink:href="#DejaVuSans-30" x="274.658203"/>
      </g>
     </g>
    </g>
    <g id="ytick_3">
     <g id="line2d_8">
      <g>
       <use xlink:href="#mc379449548" x="71.910938" y="185.088" style="stroke: #000000; stroke-width: 0.8"/>
      </g>
     </g>
     <g id="text_9">
      <!-- 0 -->
      <g transform="translate(56.003438 190.406906) scale(0.14 -0.14)">
       <use xlink:href="#DejaVuSans-30"/>
      </g>
     </g>
    </g>
    <g id="ytick_4">
     <g id="line2d_9">
      <g>
       <use xlink:href="#mc379449548" x="71.910938" y="118.56" style="stroke: #000000; stroke-width: 0.8"/>
      </g>
     </g>
     <g id="text_10">
      <!-- 2000 -->
      <g transform="translate(29.280938 123.878906) scale(0.14 -0.14)">
       <use xlink:href="#DejaVuSans-32"/>
       <use xlink:href="#DejaVuSans-30" x="63.623047"/>
       <use xlink:href="#DejaVuSans-30" x="127.246094"/>
       <use xlink:href="#DejaVuSans-30" x="190.869141"/>
      </g>
     </g>
    </g>
    <g id="ytick_5">
     <g id="line2d_10">
      <g>
       <use xlink:href="#mc379449548" x="71.910938" y="52.032" style="stroke: #000000; stroke-width: 0.8"/>
      </g>
     </g>
     <g id="text_11">
      <!-- 4000 -->
      <g transform="translate(29.280938 57.350906) scale(0.14 -0.14)">
       <use xlink:href="#DejaVuSans-34"/>
       <use xlink:href="#DejaVuSans-30" x="63.623047"/>
       <use xlink:href="#DejaVuSans-30" x="127.246094"/>
       <use xlink:href="#DejaVuSans-30" x="190.869141"/>
      </g>
     </g>
    </g>
    <g id="text_12">
     <!-- North (m) -->
     <g transform="translate(10.637812 219.171437) rotate(-90) scale(0.14 -0.14)">
      <defs>
       <path id="DejaVuSans-4e" d="M 628 4666 
L 1478 4666 
L 3547 763 
L 3547 4666 
L 4159 4666 
L 4159 0 
L 3309 0 
L 1241 3903 
L 1241 0 
L 628 0 
L 628 4666 
z
" transform="scale(0.015625)"/>
       <path id="DejaVuSans-6f" d="M 1959 3097 
Q 1497 3097 1228 2736 
Q 959 2375 959 1747 
Q 959 1119 1226 758 
Q 1494 397 1959 397 
Q 2419 397 2687 759 
Q 2956 1122 2956 1747 
Q 2956 2369 2687 2733 
Q 2419 3097 1959 3097 
z
M 1959 3584 
Q 2709 3584 3137 3096 
Q 3566 2609 3566 1747 
Q 3566 888 3137 398 
Q 2709 -91 1959 -91 
Q 1206 -91 779 398 
Q 353 888 353 1747 
Q 353 2609 779 3096 
Q 1206 3584 1959 3584 
z
" transform="scale(0.015625)"/>
       <path id="DejaVuSans-72" d="M 2631 2963 
Q 2534 3019 2420 3045 
Q 2306 3072 2169 3072 
Q 1681 3072 1420 2755 
Q 1159 2438 1159 1844 
L 1159 0 
L 581 0 
L 581 3500 
L 1159 3500 
L 1159 2956 
Q 1341 3275 1631 3429 
Q 1922 3584 2338 3584 
Q 2397 3584 2469 3576 
Q 2541 3569 2628 3553 
L 2631 2963 
z
" transform="scale(0.015625)"/>
       <path id="DejaVuSans-68" d="M 3513 2113 
L 3513 0 
L 2938 0 
L 2938 2094 
Q 2938 2591 2744 2837 
Q 2550 3084 2163 3084 
Q 1697 3084 1428 2787 
Q 1159 2491 1159 1978 
L 1159 0 
L 581 0 
L 581 4863 
L 1159 4863 
L 1159 2956 
Q 1366 3272 1645 3428 
Q 1925 3584 2291 3584 
Q 2894 3584 3203 3211 
Q 3513 2838 3513 2113 
z
" transform="scale(0.015625)"/>
      </defs>
      <use xlink:href="#DejaVuSans-4e"/>
      <use xlink:href="#DejaVuSans-6f" x="74.804688"/>
      <use xlink:href="#DejaVuSans-72" x="135.986328"/>
      <use xlink:href="#DejaVuSans-74" x="177.099609"/>
      <use xlink:href="#DejaVuSans-68" x="216.308594"/>
      <use xlink:href="#DejaVuSans-20" x="279.6875"/>
      <use xlink:href="#DejaVuSans-28" x="311.474609"/>
      <use xlink:href="#DejaVuSans-6d" x="350.488281"/>
      <use xlink:href="#DejaVuSans-29" x="447.900391"/>
     </g>
    </g>
   </g>
   <g id="line2d_11">
    <path d="M 71.910938 185.088 
L 518.310938 185.088 
" clip-path="url(#p67f06b729d)" style="fill: none; stroke: #000000; stroke-width: 0.5; stroke-linecap: square"/>
   </g>
   <g id="line2d_12">
    <path d="M 295.110938 351.408 
L 295.110938 18.768 
" clip-path="url(#p67f06b729d)" style="fill: none; stroke: #000000; stroke-width: 0.5; stroke-linecap: square"/>
   </g>
   <g id="patch_9">
    <path d="M 71.910938 351.408 
L 71.910938 18.768 
" style="fill: none; stroke: #000000; stroke-width: 0.8; stroke-linejoin: miter; stroke-linecap: square"/>
   </g>
   <g id="patch_10">
    <path d="M 518.310938 351.408 
L 518.310938 18.768 
" style="fill: none; stroke: #000000; stroke-width: 0.8; stroke-linejoin: miter; stroke-linecap: square"/>
   </g>
   <g id="patch_11">
    <path d="M 71.910938 351.408 
L 518.310938 351.408 
" style="fill: none; stroke: #000000; stroke-width: 0.8; stroke-linejoin: miter; stroke-linecap: square"/>
   </g>
   <g id="patch_12">
    <path d="M 71.910938 18.768 
L 518.310938 18.768 
" style="fill: none; stroke: #000000; stroke-width: 0.8; stroke-linejoin: miter; stroke-linecap: square"/>
   </g>
   <g id="text_13">
    <!-- 1$\sigma$, 2$\sigma$ and 3$\sigma$ Dispersion Ellipses: Apogee and Lading Points -->
    <g transform="translate(40.506938 12.768) scale(0.168 -0.168)">
     <defs>
      <path id="DejaVuSans-31" d="M 794 531 
L 1825 531 
L 1825 4091 
L 703 3866 
L 703 4441 
L 1819 4666 
L 2450 4666 
L 2450 531 
L 3481 531 
L 3481 0 
L 794 0 
L 794 531 
z
" transform="scale(0.015625)"/>
      <path id="DejaVuSans-Oblique-3c3" d="M 2219 3044 
Q 1744 3044 1422 2700 
Q 1081 2341 969 1747 
Q 844 1119 1044 756 
Q 1241 397 1706 397 
Q 2166 397 2503 759 
Q 2844 1122 2966 1747 
Q 3075 2319 2881 2700 
Q 2700 3044 2219 3044 
z
M 2309 3503 
L 4219 3500 
L 4106 2925 
L 3463 2925 
Q 3706 2438 3575 1747 
Q 3406 888 2884 400 
Q 2359 -91 1609 -91 
Q 856 -91 525 400 
Q 194 888 363 1747 
Q 528 2609 1050 3097 
Q 1484 3503 2309 3503 
z
" transform="scale(0.015625)"/>
      <path id="DejaVuSans-2c" d="M 750 794 
L 1409 794 
L 1409 256 
L 897 -744 
L 494 -744 
L 750 256 
L 750 794 
z
" transform="scale(0.015625)"/>
      <path id="DejaVuSans-6e" d="M 3513 2113 
L 3513 0 
L 2938 0 
L 2938 2094 
Q 2938 2591 2744 2837 
Q 2550 3084 2163 3084 
Q 1697 3084 1428 2787 
Q 1159 2491 1159 1978 
L 1159 0 
L 581 0 
L 581 3500 
L 1159 3500 
L 1159 2956 
Q 1366 3272 1645 3428 
Q 1925 3584 2291 3584 
Q 2894 3584 3203 3211 
Q 3513 2838 3513 2113 
z
" transform="scale(0.015625)"/>
      <path id="DejaVuSans-64" d="M 2906 2969 
L 2906 4863 
L 3481 4863 
L 3481 0 
L 2906 0 
L 2906 525 
Q 2725 213 2448 61 
Q 2172 -91 1784 -91 
Q 1150 -91 751 415 
Q 353 922 353 1747 
Q 353 2572 751 3078 
Q 1150 3584 1784 3584 
Q 2172 3584 2448 3432 
Q 2725 3281 2906 2969 
z
M 947 1747 
Q 947 1113 1208 752 
Q 1469 391 1925 391 
Q 2381 391 2643 752 
Q 2906 1113 2906 1747 
Q 2906 2381 2643 2742 
Q 2381 3103 1925 3103 
Q 1469 3103 1208 2742 
Q 947 2381 947 1747 
z
" transform="scale(0.015625)"/>
      <path id="DejaVuSans-33" d="M 2597 2516 
Q 3050 2419 3304 2112 
Q 3559 1806 3559 1356 
Q 3559 666 3084 287 
Q 2609 -91 1734 -91 
Q 1441 -91 1130 -33 
Q 819 25 488 141 
L 488 750 
Q 750 597 1062 519 
Q 1375 441 1716 441 
Q 2309 441 2620 675 
Q 2931 909 2931 1356 
Q 2931 1769 2642 2001 
Q 2353 2234 1838 2234 
L 1294 2234 
L 1294 2753 
L 1863 2753 
Q 2328 2753 2575 2939 
Q 2822 3125 2822 3475 
Q 2822 3834 2567 4026 
Q 2313 4219 1838 4219 
Q 1578 4219 1281 4162 
Q 984 4106 628 3988 
L 628 4550 
Q 988 4650 1302 4700 
Q 1616 4750 1894 4750 
Q 2613 4750 3031 4423 
Q 3450 4097 3450 3541 
Q 3450 3153 3228 2886 
Q 3006 2619 2597 2516 
z
" transform="scale(0.015625)"/>
      <path id="DejaVuSans-44" d="M 1259 4147 
L 1259 519 
L 2022 519 
Q 2988 519 3436 956 
Q 3884 1394 3884 2338 
Q 3884 3275 3436 3711 
Q 2988 4147 2022 4147 
L 1259 4147 
z
M 628 4666 
L 1925 4666 
Q 3281 4666 3915 4102 
Q 4550 3538 4550 2338 
Q 4550 1131 3912 565 
Q 3275 0 1925 0 
L 628 0 
L 628 4666 
z
" transform="scale(0.015625)"/>
      <path id="DejaVuSans-69" d="M 603 3500 
L 1178 3500 
L 1178 0 
L 603 0 
L 603 3500 
z
M 603 4863 
L 1178 4863 
L 1178 4134 
L 603 4134 
L 603 4863 
z
" transform="scale(0.015625)"/>
      <path id="DejaVuSans-70" d="M 1159 525 
L 1159 -1331 
L 581 -1331 
L 581 3500 
L 1159 3500 
L 1159 2969 
Q 1341 3281 1617 3432 
Q 1894 3584 2278 3584 
Q 2916 3584 3314 3078 
Q 3713 2572 3713 1747 
Q 3713 922 3314 415 
Q 2916 -91 2278 -91 
Q 1894 -91 1617 61 
Q 1341 213 1159 525 
z
M 3116 1747 
Q 3116 2381 2855 2742 
Q 2594 3103 2138 3103 
Q 1681 3103 1420 2742 
Q 1159 2381 1159 1747 
Q 1159 1113 1420 752 
Q 1681 391 2138 391 
Q 2594 391 2855 752 
Q 3116 1113 3116 1747 
z
" transform="scale(0.015625)"/>
      <path id="DejaVuSans-65" d="M 3597 1894 
L 3597 1613 
L 953 1613 
Q 991 1019 1311 708 
Q 1631 397 2203 397 
Q 2534 397 2845 478 
Q 3156 559 3463 722 
L 3463 178 
Q 3153 47 2828 -22 
Q 2503 -91 2169 -91 
Q 1331 -91 842 396 
Q 353 884 353 1716 
Q 353 2575 817 3079 
Q 1281 3584 2069 3584 
Q 2775 3584 3186 3129 
Q 3597 2675 3597 1894 
z
M 3022 2063 
Q 3016 2534 2758 2815 
Q 2500 3097 2075 3097 
Q 1594 3097 1305 2825 
Q 1016 2553 972 2059 
L 3022 2063 
z
" transform="scale(0.015625)"/>
      <path id="DejaVuSans-6c" d="M 603 4863 
L 1178 4863 
L 1178 0 
L 603 0 
L 603 4863 
z
" transform="scale(0.015625)"/>
      <path id="DejaVuSans-3a" d="M 750 794 
L 1409 794 
L 1409 0 
L 750 0 
L 750 794 
z
M 750 3309 
L 1409 3309 
L 1409 2516 
L 750 2516 
L 750 3309 
z
" transform="scale(0.015625)"/>
      <path id="DejaVuSans-41" d="M 2188 4044 
L 1331 1722 
L 3047 1722 
L 2188 4044 
z
M 1831 4666 
L 2547 4666 
L 4325 0 
L 3669 0 
L 3244 1197 
L 1141 1197 
L 716 0 
L 50 0 
L 1831 4666 
z
" transform="scale(0.015625)"/>
      <path id="DejaVuSans-67" d="M 2906 1791 
Q 2906 2416 2648 2759 
Q 2391 3103 1925 3103 
Q 1463 3103 1205 2759 
Q 947 2416 947 1791 
Q 947 1169 1205 825 
Q 1463 481 1925 481 
Q 2391 481 2648 825 
Q 2906 1169 2906 1791 
z
M 3481 434 
Q 3481 -459 3084 -895 
Q 2688 -1331 1869 -1331 
Q 1566 -1331 1297 -1286 
Q 1028 -1241 775 -1147 
L 775 -588 
Q 1028 -725 1275 -790 
Q 1522 -856 1778 -856 
Q 2344 -856 2625 -561 
Q 2906 -266 2906 331 
L 2906 616 
Q 2728 306 2450 153 
Q 2172 0 1784 0 
Q 1141 0 747 490 
Q 353 981 353 1791 
Q 353 2603 747 3093 
Q 1141 3584 1784 3584 
Q 2172 3584 2450 3431 
Q 2728 3278 2906 2969 
L 2906 3500 
L 3481 3500 
L 3481 434 
z
" transform="scale(0.015625)"/>
      <path id="DejaVuSans-4c" d="M 628 4666 
L 1259 4666 
L 1259 531 
L 3531 531 
L 3531 0 
L 628 0 
L 628 4666 
z
" transform="scale(0.015625)"/>
      <path id="DejaVuSans-50" d="M 1259 4147 
L 1259 2394 
L 2053 2394 
Q 2494 2394 2734 2622 
Q 2975 2850 2975 3272 
Q 2975 3691 2734 3919 
Q 2494 4147 2053 4147 
L 1259 4147 
z
M 628 4666 
L 2053 4666 
Q 2838 4666 3239 4311 
Q 3641 3956 3641 3272 
Q 3641 2581 3239 2228 
Q 2838 1875 2053 1875 
L 1259 1875 
L 1259 0 
L 628 0 
L 628 4666 
z
" transform="scale(0.015625)"/>
     </defs>
     <use xlink:href="#DejaVuSans-31" transform="translate(0 0.015625)"/>
     <use xlink:href="#DejaVuSans-Oblique-3c3" transform="translate(63.623047 0.015625)"/>
     <use xlink:href="#DejaVuSans-2c" transform="translate(127.001953 0.015625)"/>
     <use xlink:href="#DejaVuSans-20" transform="translate(158.789062 0.015625)"/>
     <use xlink:href="#DejaVuSans-32" transform="translate(190.576172 0.015625)"/>
     <use xlink:href="#DejaVuSans-Oblique-3c3" transform="translate(254.199219 0.015625)"/>
     <use xlink:href="#DejaVuSans-20" transform="translate(317.578125 0.015625)"/>
     <use xlink:href="#DejaVuSans-61" transform="translate(349.365234 0.015625)"/>
     <use xlink:href="#DejaVuSans-6e" transform="translate(410.644531 0.015625)"/>
     <use xlink:href="#DejaVuSans-64" transform="translate(474.023438 0.015625)"/>
     <use xlink:href="#DejaVuSans-20" transform="translate(537.5 0.015625)"/>
     <use xlink:href="#DejaVuSans-33" transform="translate(569.287109 0.015625)"/>
     <use xlink:href="#DejaVuSans-Oblique-3c3" transform="translate(632.910156 0.015625)"/>
     <use xlink:href="#DejaVuSans-20" transform="translate(696.289062 0.015625)"/>
     <use xlink:href="#DejaVuSans-44" transform="translate(728.076172 0.015625)"/>
     <use xlink:href="#DejaVuSans-69" transform="translate(805.078125 0.015625)"/>
     <use xlink:href="#DejaVuSans-73" transform="translate(832.861328 0.015625)"/>
     <use xlink:href="#DejaVuSans-70" transform="translate(884.960938 0.015625)"/>
     <use xlink:href="#DejaVuSans-65" transform="translate(948.4375 0.015625)"/>
     <use xlink:href="#DejaVuSans-72" transform="translate(1009.960938 0.015625)"/>
     <use xlink:href="#DejaVuSans-73" transform="translate(1051.074219 0.015625)"/>
     <use xlink:href="#DejaVuSans-69" transform="translate(1103.173828 0.015625)"/>
     <use xlink:href="#DejaVuSans-6f" transform="translate(1130.957031 0.015625)"/>
     <use xlink:href="#DejaVuSans-6e" transform="translate(1192.138672 0.015625)"/>
     <use xlink:href="#DejaVuSans-20" transform="translate(1255.517578 0.015625)"/>
     <use xlink:href="#DejaVuSans-45" transform="translate(1287.304688 0.015625)"/>
     <use xlink:href="#DejaVuSans-6c" transform="translate(1350.488281 0.015625)"/>
     <use xlink:href="#DejaVuSans-6c" transform="translate(1378.271484 0.015625)"/>
     <use xlink:href="#DejaVuSans-69" transform="translate(1406.054688 0.015625)"/>
     <use xlink:href="#DejaVuSans-70" transform="translate(1433.837891 0.015625)"/>
     <use xlink:href="#DejaVuSans-73" transform="translate(1497.314453 0.015625)"/>
     <use xlink:href="#DejaVuSans-65" transform="translate(1549.414062 0.015625)"/>
     <use xlink:href="#DejaVuSans-73" transform="translate(1610.9375 0.015625)"/>
     <use xlink:href="#DejaVuSans-3a" transform="translate(1663.037109 0.015625)"/>
     <use xlink:href="#DejaVuSans-20" transform="translate(1696.728516 0.015625)"/>
     <use xlink:href="#DejaVuSans-41" transform="translate(1728.515625 0.015625)"/>
     <use xlink:href="#DejaVuSans-70" transform="translate(1796.923828 0.015625)"/>
     <use xlink:href="#DejaVuSans-6f" transform="translate(1860.400391 0.015625)"/>
     <use xlink:href="#DejaVuSans-67" transform="translate(1921.582031 0.015625)"/>
     <use xlink:href="#DejaVuSans-65" transform="translate(1985.058594 0.015625)"/>
     <use xlink:href="#DejaVuSans-65" transform="translate(2046.582031 0.015625)"/>
     <use xlink:href="#DejaVuSans-20" transform="translate(2108.105469 0.015625)"/>
     <use xlink:href="#DejaVuSans-61" transform="translate(2139.892578 0.015625)"/>
     <use xlink:href="#DejaVuSans-6e" transform="translate(2201.171875 0.015625)"/>
     <use xlink:href="#DejaVuSans-64" transform="translate(2264.550781 0.015625)"/>
     <use xlink:href="#DejaVuSans-20" transform="translate(2328.027344 0.015625)"/>
     <use xlink:href="#DejaVuSans-4c" transform="translate(2359.814453 0.015625)"/>
     <use xlink:href="#DejaVuSans-61" transform="translate(2415.527344 0.015625)"/>
     <use xlink:href="#DejaVuSans-64" transform="translate(2476.806641 0.015625)"/>
     <use xlink:href="#DejaVuSans-69" transform="translate(2540.283203 0.015625)"/>
     <use xlink:href="#DejaVuSans-6e" transform="translate(2568.066406 0.015625)"/>
     <use xlink:href="#DejaVuSans-67" transform="translate(2631.445312 0.015625)"/>
     <use xlink:href="#DejaVuSans-20" transform="translate(2694.921875 0.015625)"/>
     <use xlink:href="#DejaVuSans-50" transform="translate(2726.708984 0.015625)"/>
     <use xlink:href="#DejaVuSans-6f" transform="translate(2787.011719 0.015625)"/>
     <use xlink:href="#DejaVuSans-69" transform="translate(2848.193359 0.015625)"/>
     <use xlink:href="#DejaVuSans-6e" transform="translate(2875.976562 0.015625)"/>
     <use xlink:href="#DejaVuSans-74" transform="translate(2939.355469 0.015625)"/>
     <use xlink:href="#DejaVuSans-73" transform="translate(2978.564453 0.015625)"/>
    </g>
   </g>
   <g id="legend_1">
    <g id="patch_13">
     <path d="M 293.525625 91.616125 
L 508.510938 91.616125 
Q 511.310938 91.616125 511.310938 88.816125 
L 511.310938 28.568 
Q 511.310938 25.768 508.510938 25.768 
L 293.525625 25.768 
Q 290.725625 25.768 290.725625 28.568 
L 290.725625 88.816125 
Q 290.725625 91.616125 293.525625 91.616125 
z
" style="fill: #ffffff; opacity: 0.8; stroke: #cccccc; stroke-linejoin: miter"/>
    </g>
    <g id="PathCollection_4">
     <g>
      <use xlink:href="#mf8c7b42718" x="310.325625" y="38.330812" style="stroke: #000000"/>
     </g>
    </g>
    <g id="text_14">
     <!-- Launch Point -->
     <g transform="translate(335.525625 42.005812) scale(0.14 -0.14)">
      <defs>
       <path id="DejaVuSans-75" d="M 544 1381 
L 544 3500 
L 1119 3500 
L 1119 1403 
Q 1119 906 1312 657 
Q 1506 409 1894 409 
Q 2359 409 2629 706 
Q 2900 1003 2900 1516 
L 2900 3500 
L 3475 3500 
L 3475 0 
L 2900 0 
L 2900 538 
Q 2691 219 2414 64 
Q 2138 -91 1772 -91 
Q 1169 -91 856 284 
Q 544 659 544 1381 
z
M 1991 3584 
L 1991 3584 
z
" transform="scale(0.015625)"/>
       <path id="DejaVuSans-63" d="M 3122 3366 
L 3122 2828 
Q 2878 2963 2633 3030 
Q 2388 3097 2138 3097 
Q 1578 3097 1268 2742 
Q 959 2388 959 1747 
Q 959 1106 1268 751 
Q 1578 397 2138 397 
Q 2388 397 2633 464 
Q 2878 531 3122 666 
L 3122 134 
Q 2881 22 2623 -34 
Q 2366 -91 2075 -91 
Q 1284 -91 818 406 
Q 353 903 353 1747 
Q 353 2603 823 3093 
Q 1294 3584 2113 3584 
Q 2378 3584 2631 3529 
Q 2884 3475 3122 3366 
z
" transform="scale(0.015625)"/>
      </defs>
      <use xlink:href="#DejaVuSans-4c"/>
      <use xlink:href="#DejaVuSans-61" x="55.712891"/>
      <use xlink:href="#DejaVuSans-75" x="116.992188"/>
      <use xlink:href="#DejaVuSans-6e" x="180.371094"/>
      <use xlink:href="#DejaVuSans-63" x="243.75"/>
      <use xlink:href="#DejaVuSans-68" x="298.730469"/>
      <use xlink:href="#DejaVuSans-20" x="362.109375"/>
      <use xlink:href="#DejaVuSans-50" x="393.896484"/>
      <use xlink:href="#DejaVuSans-6f" x="450.574219"/>
      <use xlink:href="#DejaVuSans-69" x="511.755859"/>
      <use xlink:href="#DejaVuSans-6e" x="539.539062"/>
      <use xlink:href="#DejaVuSans-74" x="602.917969"/>
     </g>
    </g>
    <g id="PathCollection_5">
     <g>
      <use xlink:href="#m1a265388fd" x="310.325625" y="58.880187" style="fill: #008000; stroke: #008000"/>
     </g>
    </g>
    <g id="text_15">
     <!-- Simulated Apogee -->
     <g transform="translate(335.525625 62.555187) scale(0.14 -0.14)">
      <defs>
       <path id="DejaVuSans-53" d="M 3425 4513 
L 3425 3897 
Q 3066 4069 2747 4153 
Q 2428 4238 2131 4238 
Q 1616 4238 1336 4038 
Q 1056 3838 1056 3469 
Q 1056 3159 1242 3001 
Q 1428 2844 1947 2747 
L 2328 2669 
Q 3034 2534 3370 2195 
Q 3706 1856 3706 1288 
Q 3706 609 3251 259 
Q 2797 -91 1919 -91 
Q 1588 -91 1214 -16 
Q 841 59 441 206 
L 441 856 
Q 825 641 1194 531 
Q 1563 422 1919 422 
Q 2459 422 2753 634 
Q 3047 847 3047 1241 
Q 3047 1584 2836 1778 
Q 2625 1972 2144 2069 
L 1759 2144 
Q 1053 2284 737 2584 
Q 422 2884 422 3419 
Q 422 4038 858 4394 
Q 1294 4750 2059 4750 
Q 2388 4750 2728 4690 
Q 3069 4631 3425 4513 
z
" transform="scale(0.015625)"/>
      </defs>
      <use xlink:href="#DejaVuSans-53"/>
      <use xlink:href="#DejaVuSans-69" x="63.476562"/>
      <use xlink:href="#DejaVuSans-6d" x="91.259766"/>
      <use xlink:href="#DejaVuSans-75" x="188.671875"/>
      <use xlink:href="#DejaVuSans-6c" x="252.050781"/>
      <use xlink:href="#DejaVuSans-61" x="279.833984"/>
      <use xlink:href="#DejaVuSans-74" x="341.113281"/>
      <use xlink:href="#DejaVuSans-65" x="380.322266"/>
      <use xlink:href="#DejaVuSans-64" x="441.845703"/>
      <use xlink:href="#DejaVuSans-20" x="505.322266"/>
      <use xlink:href="#DejaVuSans-41" x="537.109375"/>
      <use xlink:href="#DejaVuSans-70" x="605.517578"/>
      <use xlink:href="#DejaVuSans-6f" x="668.994141"/>
      <use xlink:href="#DejaVuSans-67" x="730.175781"/>
      <use xlink:href="#DejaVuSans-65" x="793.652344"/>
      <use xlink:href="#DejaVuSans-65" x="855.175781"/>
     </g>
    </g>
    <g id="PathCollection_6">
     <g>
      <use xlink:href="#mebf156ec4a" x="310.325625" y="79.429562" style="fill: #0000ff; stroke: #0000ff"/>
     </g>
    </g>
    <g id="text_16">
     <!-- Simulated Landing Point -->
     <g transform="translate(335.525625 83.104562) scale(0.14 -0.14)">
      <use xlink:href="#DejaVuSans-53"/>
      <use xlink:href="#DejaVuSans-69" x="63.476562"/>
      <use xlink:href="#DejaVuSans-6d" x="91.259766"/>
      <use xlink:href="#DejaVuSans-75" x="188.671875"/>
      <use xlink:href="#DejaVuSans-6c" x="252.050781"/>
      <use xlink:href="#DejaVuSans-61" x="279.833984"/>
      <use xlink:href="#DejaVuSans-74" x="341.113281"/>
      <use xlink:href="#DejaVuSans-65" x="380.322266"/>
      <use xlink:href="#DejaVuSans-64" x="441.845703"/>
      <use xlink:href="#DejaVuSans-20" x="505.322266"/>
      <use xlink:href="#DejaVuSans-4c" x="537.109375"/>
      <use xlink:href="#DejaVuSans-61" x="592.822266"/>
      <use xlink:href="#DejaVuSans-6e" x="654.101562"/>
      <use xlink:href="#DejaVuSans-64" x="717.480469"/>
      <use xlink:href="#DejaVuSans-69" x="780.957031"/>
      <use xlink:href="#DejaVuSans-6e" x="808.740234"/>
      <use xlink:href="#DejaVuSans-67" x="872.119141"/>
      <use xlink:href="#DejaVuSans-20" x="935.595703"/>
      <use xlink:href="#DejaVuSans-50" x="967.382812"/>
      <use xlink:href="#DejaVuSans-6f" x="1024.060547"/>
      <use xlink:href="#DejaVuSans-69" x="1085.242188"/>
      <use xlink:href="#DejaVuSans-6e" x="1113.025391"/>
      <use xlink:href="#DejaVuSans-74" x="1176.404297"/>
     </g>
    </g>
   </g>
  </g>
 </g>
 <defs>
  <clipPath id="p67f06b729d">
   <rect x="71.910938" y="18.768" width="446.4" height="332.64"/>
  </clipPath>
 </defs>
</svg>
